<?xml version='1.0' encoding='UTF-8'?>
<svg xmlns="http://www.w3.org/2000/svg" xmlns:xlink="http://www.w3.org/1999/xlink" width="226.4pt" height="230pt" viewBox="0 28 226.4 230" version="1.2">
<defs>
<g>
<symbol overflow="visible" id="glyph0-0">
<path style="stroke:none;" d="" />
</symbol>
<symbol overflow="visible" id="glyph0-1">
<path style="stroke:none;" d="M 0.234375 0 L 0.234375 -0.328125 L 0.640625 -0.328125 C 0.992188 -0.328125 1.265625 -0.378906 1.453125 -0.484375 C 1.640625 -0.597656 1.78125 -0.753906 1.875 -0.953125 C 1.925781 -1.078125 1.953125 -1.453125 1.953125 -2.078125 L 1.953125 -10.046875 C 1.953125 -10.671875 1.914062 -11.0625 1.84375 -11.21875 C 1.78125 -11.375 1.648438 -11.507812 1.453125 -11.625 C 1.253906 -11.738281 0.984375 -11.796875 0.640625 -11.796875 L 0.234375 -11.796875 L 0.234375 -12.125 L 5.671875 -12.125 C 7.117188 -12.125 8.285156 -11.925781 9.171875 -11.53125 C 10.242188 -11.050781 11.054688 -10.320312 11.609375 -9.34375 C 12.171875 -8.363281 12.453125 -7.257812 12.453125 -6.03125 C 12.453125 -5.175781 12.316406 -4.390625 12.046875 -3.671875 C 11.773438 -2.953125 11.421875 -2.359375 10.984375 -1.890625 C 10.546875 -1.421875 10.039062 -1.046875 9.46875 -0.765625 C 8.90625 -0.484375 8.210938 -0.265625 7.390625 -0.109375 C 7.023438 -0.0351562 6.453125 0 5.671875 0 Z M 4.859375 -11.4375 L 4.859375 -1.96875 C 4.859375 -1.46875 4.878906 -1.160156 4.921875 -1.046875 C 4.972656 -0.941406 5.054688 -0.859375 5.171875 -0.796875 C 5.335938 -0.703125 5.570312 -0.65625 5.875 -0.65625 C 6.875 -0.65625 7.632812 -1 8.15625 -1.6875 C 8.875 -2.601562 9.234375 -4.023438 9.234375 -5.953125 C 9.234375 -7.503906 8.988281 -8.75 8.5 -9.6875 C 8.101562 -10.414062 7.601562 -10.910156 7 -11.171875 C 6.570312 -11.359375 5.859375 -11.445312 4.859375 -11.4375 Z M 4.859375 -11.4375 " />
</symbol>
<symbol overflow="visible" id="glyph1-0">
<path style="stroke:none;" d="" />
</symbol>
<symbol overflow="visible" id="glyph1-1">
<path style="stroke:none;" d="M 7.890625 -3.578125 L 3.453125 -3.578125 L 2.921875 -2.34375 C 2.753906 -1.9375 2.671875 -1.601562 2.671875 -1.34375 C 2.671875 -0.988281 2.8125 -0.726562 3.09375 -0.5625 C 3.257812 -0.46875 3.671875 -0.394531 4.328125 -0.34375 L 4.328125 0 L 0.140625 0 L 0.140625 -0.34375 C 0.597656 -0.40625 0.96875 -0.585938 1.25 -0.890625 C 1.539062 -1.203125 1.898438 -1.835938 2.328125 -2.796875 L 6.828125 -12.8125 L 7 -12.8125 L 11.515625 -2.515625 C 11.953125 -1.546875 12.3125 -0.929688 12.59375 -0.671875 C 12.800781 -0.484375 13.09375 -0.375 13.46875 -0.34375 L 13.46875 0 L 7.40625 0 L 7.40625 -0.34375 L 7.65625 -0.34375 C 8.144531 -0.34375 8.488281 -0.410156 8.6875 -0.546875 C 8.820312 -0.640625 8.890625 -0.78125 8.890625 -0.96875 C 8.890625 -1.082031 8.867188 -1.195312 8.828125 -1.3125 C 8.816406 -1.363281 8.722656 -1.597656 8.546875 -2.015625 Z M 7.5625 -4.25 L 5.703125 -8.578125 L 3.78125 -4.25 Z M 7.5625 -4.25 " />
</symbol>
<symbol overflow="visible" id="glyph1-2">
<path style="stroke:none;" d="M 4.171875 -8.65625 L 4.171875 -7.53125 C 4.617188 -8.007812 5.046875 -8.359375 5.453125 -8.578125 C 5.859375 -8.796875 6.296875 -8.90625 6.765625 -8.90625 C 7.328125 -8.90625 7.789062 -8.75 8.15625 -8.4375 C 8.53125 -8.132812 8.78125 -7.75 8.90625 -7.28125 C 9 -6.925781 9.046875 -6.25 9.046875 -5.25 L 9.046875 -1.890625 C 9.046875 -1.222656 9.101562 -0.804688 9.21875 -0.640625 C 9.34375 -0.472656 9.597656 -0.367188 9.984375 -0.328125 L 9.984375 0 L 5.609375 0 L 5.609375 -0.328125 C 5.929688 -0.367188 6.164062 -0.503906 6.3125 -0.734375 C 6.40625 -0.890625 6.453125 -1.273438 6.453125 -1.890625 L 6.453125 -5.734375 C 6.453125 -6.441406 6.425781 -6.890625 6.375 -7.078125 C 6.320312 -7.265625 6.226562 -7.40625 6.09375 -7.5 C 5.957031 -7.601562 5.8125 -7.65625 5.65625 -7.65625 C 5.125 -7.65625 4.628906 -7.28125 4.171875 -6.53125 L 4.171875 -1.890625 C 4.171875 -1.242188 4.226562 -0.832031 4.34375 -0.65625 C 4.46875 -0.476562 4.695312 -0.367188 5.03125 -0.328125 L 5.03125 0 L 0.640625 0 L 0.640625 -0.328125 C 1.003906 -0.367188 1.265625 -0.488281 1.421875 -0.6875 C 1.523438 -0.820312 1.578125 -1.222656 1.578125 -1.890625 L 1.578125 -6.78125 C 1.578125 -7.425781 1.515625 -7.828125 1.390625 -7.984375 C 1.273438 -8.148438 1.023438 -8.257812 0.640625 -8.3125 L 0.640625 -8.65625 Z M 4.171875 -8.65625 " />
</symbol>
<symbol overflow="visible" id="glyph1-3">
<path style="stroke:none;" d="M 6.109375 -8.890625 L 6.25 -5.9375 L 5.9375 -5.9375 C 5.5625 -6.8125 5.171875 -7.410156 4.765625 -7.734375 C 4.359375 -8.054688 3.953125 -8.21875 3.546875 -8.21875 C 3.296875 -8.21875 3.082031 -8.128906 2.90625 -7.953125 C 2.726562 -7.785156 2.640625 -7.59375 2.640625 -7.375 C 2.640625 -7.207031 2.703125 -7.046875 2.828125 -6.890625 C 3.023438 -6.640625 3.578125 -6.207031 4.484375 -5.59375 C 5.390625 -4.976562 5.984375 -4.457031 6.265625 -4.03125 C 6.554688 -3.601562 6.703125 -3.125 6.703125 -2.59375 C 6.703125 -2.113281 6.582031 -1.640625 6.34375 -1.171875 C 6.101562 -0.710938 5.765625 -0.359375 5.328125 -0.109375 C 4.890625 0.140625 4.40625 0.265625 3.875 0.265625 C 3.457031 0.265625 2.90625 0.132812 2.21875 -0.125 C 2.03125 -0.195312 1.898438 -0.234375 1.828125 -0.234375 C 1.628906 -0.234375 1.460938 -0.078125 1.328125 0.234375 L 1.015625 0.234375 L 0.875 -2.875 L 1.1875 -2.875 C 1.457031 -2.0625 1.832031 -1.453125 2.3125 -1.046875 C 2.800781 -0.640625 3.265625 -0.4375 3.703125 -0.4375 C 3.992188 -0.4375 4.234375 -0.523438 4.421875 -0.703125 C 4.609375 -0.890625 4.703125 -1.113281 4.703125 -1.375 C 4.703125 -1.664062 4.609375 -1.921875 4.421875 -2.140625 C 4.242188 -2.359375 3.832031 -2.6875 3.1875 -3.125 C 2.25 -3.769531 1.640625 -4.269531 1.359375 -4.625 C 0.953125 -5.125 0.75 -5.679688 0.75 -6.296875 C 0.75 -6.960938 0.976562 -7.5625 1.4375 -8.09375 C 1.894531 -8.632812 2.5625 -8.90625 3.4375 -8.90625 C 3.90625 -8.90625 4.359375 -8.789062 4.796875 -8.5625 C 4.960938 -8.476562 5.097656 -8.4375 5.203125 -8.4375 C 5.316406 -8.4375 5.40625 -8.457031 5.46875 -8.5 C 5.539062 -8.539062 5.648438 -8.671875 5.796875 -8.890625 Z M 6.109375 -8.890625 " />
</symbol>
<symbol overflow="visible" id="glyph1-4">
<path style="stroke:none;" d="M 9.21875 0.265625 L 6.84375 -6.09375 L 4.53125 0.265625 L 4.046875 0.265625 L 1.734375 -6.015625 C 1.390625 -6.972656 1.097656 -7.597656 0.859375 -7.890625 C 0.703125 -8.085938 0.46875 -8.226562 0.15625 -8.3125 L 0.15625 -8.65625 L 4.53125 -8.65625 L 4.53125 -8.3125 C 4.226562 -8.3125 4.019531 -8.265625 3.90625 -8.171875 C 3.800781 -8.085938 3.75 -7.992188 3.75 -7.890625 C 3.75 -7.785156 3.847656 -7.46875 4.046875 -6.9375 L 5.3125 -3.5625 L 6.53125 -6.9375 L 6.4375 -7.15625 C 6.25 -7.625 6.085938 -7.921875 5.953125 -8.046875 C 5.816406 -8.171875 5.601562 -8.257812 5.3125 -8.3125 L 5.3125 -8.65625 L 9.75 -8.65625 L 9.75 -8.3125 C 9.40625 -8.289062 9.1875 -8.238281 9.09375 -8.15625 C 9 -8.082031 8.953125 -7.976562 8.953125 -7.84375 C 8.953125 -7.707031 9.039062 -7.40625 9.21875 -6.9375 L 10.4375 -3.5625 L 11.546875 -6.671875 C 11.710938 -7.117188 11.796875 -7.421875 11.796875 -7.578125 C 11.796875 -7.816406 11.734375 -7.992188 11.609375 -8.109375 C 11.492188 -8.222656 11.265625 -8.289062 10.921875 -8.3125 L 10.921875 -8.65625 L 13.5 -8.65625 L 13.5 -8.3125 C 13.207031 -8.269531 12.976562 -8.164062 12.8125 -8 C 12.644531 -7.84375 12.429688 -7.378906 12.171875 -6.609375 L 9.75 0.265625 Z M 9.21875 0.265625 " />
</symbol>
<symbol overflow="visible" id="glyph1-5">
<path style="stroke:none;" d="M 7.96875 -4.640625 L 3.21875 -4.640625 C 3.269531 -3.492188 3.578125 -2.585938 4.140625 -1.921875 C 4.566406 -1.398438 5.078125 -1.140625 5.671875 -1.140625 C 6.046875 -1.140625 6.382812 -1.242188 6.6875 -1.453125 C 6.988281 -1.660156 7.3125 -2.035156 7.65625 -2.578125 L 7.96875 -2.375 C 7.5 -1.414062 6.976562 -0.734375 6.40625 -0.328125 C 5.84375 0.0664062 5.1875 0.265625 4.4375 0.265625 C 3.15625 0.265625 2.1875 -0.226562 1.53125 -1.21875 C 1 -2.019531 0.734375 -3.007812 0.734375 -4.1875 C 0.734375 -5.625 1.125 -6.769531 1.90625 -7.625 C 2.6875 -8.476562 3.597656 -8.90625 4.640625 -8.90625 C 5.515625 -8.90625 6.273438 -8.546875 6.921875 -7.828125 C 7.566406 -7.109375 7.914062 -6.046875 7.96875 -4.640625 Z M 5.6875 -5.25 C 5.6875 -6.25 5.632812 -6.929688 5.53125 -7.296875 C 5.425781 -7.671875 5.257812 -7.953125 5.03125 -8.140625 C 4.894531 -8.253906 4.71875 -8.3125 4.5 -8.3125 C 4.1875 -8.3125 3.925781 -8.15625 3.71875 -7.84375 C 3.351562 -7.289062 3.171875 -6.535156 3.171875 -5.578125 L 3.171875 -5.25 Z M 5.6875 -5.25 " />
</symbol>
<symbol overflow="visible" id="glyph1-6">
<path style="stroke:none;" d="M 4.234375 -8.65625 L 4.234375 -6.6875 C 4.804688 -7.582031 5.304688 -8.175781 5.734375 -8.46875 C 6.171875 -8.757812 6.585938 -8.90625 6.984375 -8.90625 C 7.328125 -8.90625 7.601562 -8.800781 7.8125 -8.59375 C 8.019531 -8.382812 8.125 -8.082031 8.125 -7.6875 C 8.125 -7.28125 8.023438 -6.960938 7.828125 -6.734375 C 7.628906 -6.503906 7.382812 -6.390625 7.09375 -6.390625 C 6.769531 -6.390625 6.488281 -6.492188 6.25 -6.703125 C 6.007812 -6.910156 5.867188 -7.023438 5.828125 -7.046875 C 5.765625 -7.085938 5.691406 -7.109375 5.609375 -7.109375 C 5.429688 -7.109375 5.257812 -7.039062 5.09375 -6.90625 C 4.84375 -6.695312 4.65625 -6.394531 4.53125 -6 C 4.332031 -5.40625 4.234375 -4.75 4.234375 -4.03125 L 4.234375 -1.515625 C 4.234375 -1.160156 4.253906 -0.9375 4.296875 -0.84375 C 4.378906 -0.675781 4.488281 -0.550781 4.625 -0.46875 C 4.769531 -0.394531 5.019531 -0.347656 5.375 -0.328125 L 5.375 0 L 0.6875 0 L 0.6875 -0.328125 C 1.070312 -0.359375 1.328125 -0.460938 1.453125 -0.640625 C 1.585938 -0.816406 1.65625 -1.28125 1.65625 -2.03125 L 1.65625 -6.828125 C 1.65625 -7.316406 1.628906 -7.628906 1.578125 -7.765625 C 1.515625 -7.941406 1.425781 -8.066406 1.3125 -8.140625 C 1.195312 -8.222656 0.988281 -8.28125 0.6875 -8.3125 L 0.6875 -8.65625 Z M 4.234375 -8.65625 " />
</symbol>
<symbol overflow="visible" id="glyph1-7">
<path style="stroke:none;" d="" />
</symbol>
<symbol overflow="visible" id="glyph1-8">
<path style="stroke:none;" d="M 4.078125 -11.8125 L 4.078125 -8.65625 L 6.125 -8.65625 L 6.125 -7.734375 L 4.078125 -7.734375 L 4.078125 -2.390625 C 4.078125 -1.890625 4.097656 -1.566406 4.140625 -1.421875 C 4.179688 -1.285156 4.257812 -1.171875 4.375 -1.078125 C 4.5 -0.984375 4.609375 -0.9375 4.703125 -0.9375 C 5.109375 -0.9375 5.488281 -1.242188 5.84375 -1.859375 L 6.125 -1.65625 C 5.625 -0.46875 4.8125 0.125 3.6875 0.125 C 3.144531 0.125 2.679688 -0.0234375 2.296875 -0.328125 C 1.921875 -0.640625 1.679688 -0.984375 1.578125 -1.359375 C 1.515625 -1.566406 1.484375 -2.132812 1.484375 -3.0625 L 1.484375 -7.734375 L 0.359375 -7.734375 L 0.359375 -8.0625 C 1.128906 -8.613281 1.785156 -9.191406 2.328125 -9.796875 C 2.878906 -10.398438 3.359375 -11.070312 3.765625 -11.8125 Z M 4.078125 -11.8125 " />
</symbol>
<symbol overflow="visible" id="glyph1-9">
<path style="stroke:none;" d="M 5.40625 -1.28125 C 4.351562 -0.34375 3.410156 0.125 2.578125 0.125 C 2.078125 0.125 1.660156 -0.0351562 1.328125 -0.359375 C 1.003906 -0.679688 0.84375 -1.085938 0.84375 -1.578125 C 0.84375 -2.242188 1.125 -2.835938 1.6875 -3.359375 C 2.257812 -3.890625 3.5 -4.59375 5.40625 -5.46875 L 5.40625 -6.34375 C 5.40625 -6.988281 5.367188 -7.394531 5.296875 -7.5625 C 5.234375 -7.738281 5.101562 -7.890625 4.90625 -8.015625 C 4.707031 -8.140625 4.484375 -8.203125 4.234375 -8.203125 C 3.835938 -8.203125 3.507812 -8.113281 3.25 -7.9375 C 3.082031 -7.832031 3 -7.703125 3 -7.546875 C 3 -7.421875 3.085938 -7.265625 3.265625 -7.078125 C 3.503906 -6.804688 3.625 -6.546875 3.625 -6.296875 C 3.625 -5.992188 3.507812 -5.734375 3.28125 -5.515625 C 3.050781 -5.304688 2.753906 -5.203125 2.390625 -5.203125 C 2.003906 -5.203125 1.679688 -5.316406 1.421875 -5.546875 C 1.160156 -5.785156 1.03125 -6.066406 1.03125 -6.390625 C 1.03125 -6.828125 1.203125 -7.25 1.546875 -7.65625 C 1.898438 -8.0625 2.390625 -8.367188 3.015625 -8.578125 C 3.648438 -8.796875 4.304688 -8.90625 4.984375 -8.90625 C 5.804688 -8.90625 6.457031 -8.726562 6.9375 -8.375 C 7.414062 -8.03125 7.722656 -7.65625 7.859375 -7.25 C 7.953125 -6.988281 8 -6.394531 8 -5.46875 L 8 -2.109375 C 8 -1.710938 8.015625 -1.460938 8.046875 -1.359375 C 8.078125 -1.265625 8.125 -1.191406 8.1875 -1.140625 C 8.25 -1.085938 8.316406 -1.0625 8.390625 -1.0625 C 8.554688 -1.0625 8.722656 -1.175781 8.890625 -1.40625 L 9.15625 -1.1875 C 8.851562 -0.726562 8.535156 -0.394531 8.203125 -0.1875 C 7.867188 0.0195312 7.492188 0.125 7.078125 0.125 C 6.585938 0.125 6.203125 0.0078125 5.921875 -0.21875 C 5.640625 -0.457031 5.46875 -0.8125 5.40625 -1.28125 Z M 5.40625 -1.953125 L 5.40625 -4.84375 C 4.664062 -4.40625 4.113281 -3.9375 3.75 -3.4375 C 3.507812 -3.101562 3.390625 -2.769531 3.390625 -2.4375 C 3.390625 -2.15625 3.488281 -1.90625 3.6875 -1.6875 C 3.84375 -1.519531 4.0625 -1.4375 4.34375 -1.4375 C 4.644531 -1.4375 5 -1.609375 5.40625 -1.953125 Z M 5.40625 -1.953125 " />
</symbol>
<symbol overflow="visible" id="glyph1-10">
<path style="stroke:none;" d="M 3.984375 -0.875 L 3.984375 2.34375 C 3.984375 2.78125 4.019531 3.078125 4.09375 3.234375 C 4.164062 3.398438 4.273438 3.519531 4.421875 3.59375 C 4.566406 3.675781 4.859375 3.71875 5.296875 3.71875 L 5.296875 4.046875 L 0.359375 4.046875 L 0.359375 3.71875 C 0.742188 3.695312 1.03125 3.585938 1.21875 3.390625 C 1.332031 3.242188 1.390625 2.875 1.390625 2.28125 L 1.390625 -6.84375 C 1.390625 -7.457031 1.316406 -7.847656 1.171875 -8.015625 C 1.035156 -8.191406 0.765625 -8.289062 0.359375 -8.3125 L 0.359375 -8.65625 L 3.984375 -8.65625 L 3.984375 -7.515625 C 4.285156 -7.960938 4.597656 -8.285156 4.921875 -8.484375 C 5.367188 -8.765625 5.859375 -8.90625 6.390625 -8.90625 C 7.023438 -8.90625 7.601562 -8.703125 8.125 -8.296875 C 8.644531 -7.898438 9.039062 -7.347656 9.3125 -6.640625 C 9.582031 -5.941406 9.71875 -5.1875 9.71875 -4.375 C 9.71875 -3.488281 9.578125 -2.679688 9.296875 -1.953125 C 9.015625 -1.234375 8.609375 -0.679688 8.078125 -0.296875 C 7.546875 0.078125 6.953125 0.265625 6.296875 0.265625 C 5.816406 0.265625 5.367188 0.15625 4.953125 -0.0625 C 4.648438 -0.21875 4.328125 -0.488281 3.984375 -0.875 Z M 3.984375 -1.8125 C 4.515625 -1.0625 5.082031 -0.6875 5.6875 -0.6875 C 6.019531 -0.6875 6.296875 -0.863281 6.515625 -1.21875 C 6.835938 -1.726562 7 -2.710938 7 -4.171875 C 7 -5.660156 6.820312 -6.679688 6.46875 -7.234375 C 6.238281 -7.597656 5.925781 -7.78125 5.53125 -7.78125 C 4.90625 -7.78125 4.390625 -7.332031 3.984375 -6.4375 Z M 3.984375 -1.8125 " />
</symbol>
<symbol overflow="visible" id="glyph1-11">
<path style="stroke:none;" d="M 7.703125 -2.234375 L 7.984375 -2.015625 C 7.578125 -1.242188 7.066406 -0.671875 6.453125 -0.296875 C 5.847656 0.078125 5.207031 0.265625 4.53125 0.265625 C 3.375 0.265625 2.445312 -0.164062 1.75 -1.03125 C 1.0625 -1.90625 0.71875 -2.957031 0.71875 -4.1875 C 0.71875 -5.363281 1.035156 -6.398438 1.671875 -7.296875 C 2.421875 -8.367188 3.460938 -8.90625 4.796875 -8.90625 C 5.691406 -8.90625 6.40625 -8.679688 6.9375 -8.234375 C 7.46875 -7.785156 7.734375 -7.285156 7.734375 -6.734375 C 7.734375 -6.378906 7.625 -6.097656 7.40625 -5.890625 C 7.195312 -5.679688 6.921875 -5.578125 6.578125 -5.578125 C 6.210938 -5.578125 5.910156 -5.695312 5.671875 -5.9375 C 5.429688 -6.175781 5.285156 -6.601562 5.234375 -7.21875 C 5.191406 -7.601562 5.097656 -7.875 4.953125 -8.03125 C 4.816406 -8.1875 4.648438 -8.265625 4.453125 -8.265625 C 4.160156 -8.265625 3.910156 -8.109375 3.703125 -7.796875 C 3.378906 -7.316406 3.21875 -6.585938 3.21875 -5.609375 C 3.21875 -4.796875 3.347656 -4.015625 3.609375 -3.265625 C 3.867188 -2.523438 4.222656 -1.972656 4.671875 -1.609375 C 5.015625 -1.347656 5.414062 -1.21875 5.875 -1.21875 C 6.175781 -1.21875 6.460938 -1.285156 6.734375 -1.421875 C 7.003906 -1.566406 7.328125 -1.835938 7.703125 -2.234375 Z M 7.703125 -2.234375 " />
</symbol>
<symbol overflow="visible" id="glyph1-12">
<path style="stroke:none;" d="M 4.171875 -12.546875 L 4.171875 -7.546875 C 4.648438 -8.046875 5.085938 -8.394531 5.484375 -8.59375 C 5.878906 -8.800781 6.285156 -8.90625 6.703125 -8.90625 C 7.253906 -8.90625 7.722656 -8.75 8.109375 -8.4375 C 8.492188 -8.132812 8.75 -7.773438 8.875 -7.359375 C 9 -6.941406 9.0625 -6.238281 9.0625 -5.25 L 9.0625 -1.875 C 9.0625 -1.21875 9.125 -0.804688 9.25 -0.640625 C 9.375 -0.472656 9.625 -0.367188 10 -0.328125 L 10 0 L 5.609375 0 L 5.609375 -0.328125 C 5.921875 -0.367188 6.148438 -0.492188 6.296875 -0.703125 C 6.410156 -0.859375 6.46875 -1.25 6.46875 -1.875 L 6.46875 -5.734375 C 6.46875 -6.453125 6.4375 -6.898438 6.375 -7.078125 C 6.320312 -7.265625 6.226562 -7.40625 6.09375 -7.5 C 5.96875 -7.601562 5.820312 -7.65625 5.65625 -7.65625 C 5.40625 -7.65625 5.160156 -7.570312 4.921875 -7.40625 C 4.691406 -7.238281 4.441406 -6.941406 4.171875 -6.515625 L 4.171875 -1.875 C 4.171875 -1.257812 4.21875 -0.875 4.3125 -0.71875 C 4.425781 -0.507812 4.664062 -0.378906 5.03125 -0.328125 L 5.03125 0 L 0.640625 0 L 0.640625 -0.328125 C 1.003906 -0.367188 1.265625 -0.488281 1.421875 -0.6875 C 1.523438 -0.820312 1.578125 -1.21875 1.578125 -1.875 L 1.578125 -10.671875 C 1.578125 -11.328125 1.515625 -11.734375 1.390625 -11.890625 C 1.273438 -12.046875 1.023438 -12.148438 0.640625 -12.203125 L 0.640625 -12.546875 Z M 4.171875 -12.546875 " />
</symbol>
<symbol overflow="visible" id="glyph1-13">
<path style="stroke:none;" d="M 2.71875 -12.84375 C 3.125 -12.84375 3.460938 -12.703125 3.734375 -12.421875 C 4.015625 -12.140625 4.15625 -11.800781 4.15625 -11.40625 C 4.15625 -11.007812 4.015625 -10.671875 3.734375 -10.390625 C 3.453125 -10.117188 3.113281 -9.984375 2.71875 -9.984375 C 2.320312 -9.984375 1.984375 -10.117188 1.703125 -10.390625 C 1.429688 -10.671875 1.296875 -11.007812 1.296875 -11.40625 C 1.296875 -11.800781 1.429688 -12.140625 1.703125 -12.421875 C 1.984375 -12.703125 2.320312 -12.84375 2.71875 -12.84375 Z M 4.015625 -8.65625 L 4.015625 -1.796875 C 4.015625 -1.179688 4.082031 -0.789062 4.21875 -0.625 C 4.363281 -0.457031 4.644531 -0.359375 5.0625 -0.328125 L 5.0625 0 L 0.390625 0 L 0.390625 -0.328125 C 0.773438 -0.347656 1.054688 -0.460938 1.234375 -0.671875 C 1.359375 -0.804688 1.421875 -1.179688 1.421875 -1.796875 L 1.421875 -6.84375 C 1.421875 -7.457031 1.347656 -7.847656 1.203125 -8.015625 C 1.066406 -8.191406 0.796875 -8.289062 0.390625 -8.3125 L 0.390625 -8.65625 Z M 4.015625 -8.65625 " />
</symbol>
<symbol overflow="visible" id="glyph1-14">
<path style="stroke:none;" d="M 6.1875 -8.546875 L 9.109375 -8.546875 L 9.109375 -7.53125 L 7.453125 -7.53125 C 7.753906 -7.226562 7.960938 -6.953125 8.078125 -6.703125 C 8.222656 -6.367188 8.296875 -6.019531 8.296875 -5.65625 C 8.296875 -5.039062 8.125 -4.503906 7.78125 -4.046875 C 7.445312 -3.597656 6.984375 -3.242188 6.390625 -2.984375 C 5.796875 -2.734375 5.273438 -2.609375 4.828125 -2.609375 C 4.785156 -2.609375 4.414062 -2.625 3.71875 -2.65625 C 3.4375 -2.65625 3.203125 -2.5625 3.015625 -2.375 C 2.828125 -2.195312 2.734375 -1.984375 2.734375 -1.734375 C 2.734375 -1.503906 2.816406 -1.316406 2.984375 -1.171875 C 3.148438 -1.035156 3.425781 -0.96875 3.8125 -0.96875 L 5.40625 -0.984375 C 6.707031 -0.984375 7.601562 -0.84375 8.09375 -0.5625 C 8.789062 -0.164062 9.140625 0.441406 9.140625 1.265625 C 9.140625 1.785156 8.976562 2.257812 8.65625 2.6875 C 8.332031 3.113281 7.910156 3.429688 7.390625 3.640625 C 6.585938 3.941406 5.671875 4.09375 4.640625 4.09375 C 3.859375 4.09375 3.144531 4.015625 2.5 3.859375 C 1.863281 3.710938 1.40625 3.503906 1.125 3.234375 C 0.851562 2.960938 0.71875 2.679688 0.71875 2.390625 C 0.71875 2.109375 0.820312 1.851562 1.03125 1.625 C 1.238281 1.394531 1.632812 1.207031 2.21875 1.0625 C 1.414062 0.664062 1.015625 0.113281 1.015625 -0.59375 C 1.015625 -1.019531 1.175781 -1.429688 1.5 -1.828125 C 1.832031 -2.234375 2.351562 -2.582031 3.0625 -2.875 C 2.238281 -3.175781 1.640625 -3.570312 1.265625 -4.0625 C 0.898438 -4.5625 0.71875 -5.132812 0.71875 -5.78125 C 0.71875 -6.625 1.0625 -7.351562 1.75 -7.96875 C 2.4375 -8.59375 3.328125 -8.90625 4.421875 -8.90625 C 4.992188 -8.90625 5.582031 -8.785156 6.1875 -8.546875 Z M 4.59375 -8.34375 C 4.226562 -8.34375 3.921875 -8.160156 3.671875 -7.796875 C 3.429688 -7.429688 3.3125 -6.679688 3.3125 -5.546875 C 3.3125 -4.628906 3.429688 -4 3.671875 -3.65625 C 3.921875 -3.3125 4.210938 -3.140625 4.546875 -3.140625 C 4.910156 -3.140625 5.21875 -3.3125 5.46875 -3.65625 C 5.71875 -4 5.84375 -4.660156 5.84375 -5.640625 C 5.84375 -6.742188 5.703125 -7.492188 5.421875 -7.890625 C 5.222656 -8.191406 4.945312 -8.34375 4.59375 -8.34375 Z M 4.046875 1.28125 C 3.410156 1.28125 2.992188 1.332031 2.796875 1.4375 C 2.441406 1.625 2.265625 1.882812 2.265625 2.21875 C 2.265625 2.53125 2.445312 2.8125 2.8125 3.0625 C 3.175781 3.320312 3.863281 3.453125 4.875 3.453125 C 5.726562 3.453125 6.398438 3.335938 6.890625 3.109375 C 7.378906 2.878906 7.625 2.554688 7.625 2.140625 C 7.625 1.992188 7.578125 1.867188 7.484375 1.765625 C 7.316406 1.578125 7.066406 1.445312 6.734375 1.375 C 6.398438 1.3125 5.503906 1.28125 4.046875 1.28125 Z M 4.046875 1.28125 " />
</symbol>
<symbol overflow="visible" id="glyph2-0">
<path style="stroke:none;" d="" />
</symbol>
<symbol overflow="visible" id="glyph2-1">
<path style="stroke:none;" d="M 1.640625 -8.328125 L 3.890625 -9.421875 L 4.109375 -9.421875 L 4.109375 -1.625 C 4.109375 -1.113281 4.128906 -0.789062 4.171875 -0.65625 C 4.210938 -0.53125 4.300781 -0.429688 4.4375 -0.359375 C 4.570312 -0.296875 4.847656 -0.257812 5.265625 -0.25 L 5.265625 0 L 1.796875 0 L 1.796875 -0.25 C 2.234375 -0.257812 2.515625 -0.296875 2.640625 -0.359375 C 2.765625 -0.429688 2.851562 -0.519531 2.90625 -0.625 C 2.957031 -0.738281 2.984375 -1.070312 2.984375 -1.625 L 2.984375 -6.609375 C 2.984375 -7.285156 2.960938 -7.71875 2.921875 -7.90625 C 2.890625 -8.050781 2.828125 -8.15625 2.734375 -8.21875 C 2.648438 -8.289062 2.550781 -8.328125 2.4375 -8.328125 C 2.269531 -8.328125 2.035156 -8.257812 1.734375 -8.125 Z M 1.640625 -8.328125 " />
</symbol>
<symbol overflow="visible" id="glyph2-2">
<path style="stroke:none;" d="M 6.390625 -1.78125 L 5.75 0 L 0.296875 0 L 0.296875 -0.25 C 1.898438 -1.71875 3.03125 -2.910156 3.6875 -3.828125 C 4.34375 -4.753906 4.671875 -5.601562 4.671875 -6.375 C 4.671875 -6.957031 4.488281 -7.4375 4.125 -7.8125 C 3.769531 -8.195312 3.34375 -8.390625 2.84375 -8.390625 C 2.382812 -8.390625 1.972656 -8.253906 1.609375 -7.984375 C 1.253906 -7.722656 0.988281 -7.332031 0.8125 -6.8125 L 0.5625 -6.8125 C 0.675781 -7.65625 0.96875 -8.300781 1.4375 -8.75 C 1.90625 -9.195312 2.492188 -9.421875 3.203125 -9.421875 C 3.953125 -9.421875 4.578125 -9.179688 5.078125 -8.703125 C 5.578125 -8.222656 5.828125 -7.65625 5.828125 -7 C 5.828125 -6.53125 5.71875 -6.0625 5.5 -5.59375 C 5.164062 -4.863281 4.625 -4.085938 3.875 -3.265625 C 2.738281 -2.023438 2.03125 -1.28125 1.75 -1.03125 L 4.15625 -1.03125 C 4.65625 -1.03125 5 -1.046875 5.1875 -1.078125 C 5.382812 -1.117188 5.5625 -1.191406 5.71875 -1.296875 C 5.882812 -1.410156 6.023438 -1.570312 6.140625 -1.78125 Z M 6.390625 -1.78125 " />
</symbol>
<symbol overflow="visible" id="glyph2-3">
<path style="stroke:none;" d="M 0.703125 -7.484375 C 0.972656 -8.109375 1.304688 -8.585938 1.703125 -8.921875 C 2.109375 -9.253906 2.609375 -9.421875 3.203125 -9.421875 C 3.941406 -9.421875 4.507812 -9.179688 4.90625 -8.703125 C 5.207031 -8.347656 5.359375 -7.96875 5.359375 -7.5625 C 5.359375 -6.882812 4.9375 -6.1875 4.09375 -5.46875 C 4.664062 -5.25 5.09375 -4.929688 5.375 -4.515625 C 5.664062 -4.097656 5.8125 -3.613281 5.8125 -3.0625 C 5.8125 -2.257812 5.5625 -1.566406 5.0625 -0.984375 C 4.394531 -0.222656 3.429688 0.15625 2.171875 0.15625 C 1.546875 0.15625 1.117188 0.0820312 0.890625 -0.0625 C 0.671875 -0.21875 0.5625 -0.382812 0.5625 -0.5625 C 0.5625 -0.695312 0.613281 -0.8125 0.71875 -0.90625 C 0.832031 -1.007812 0.960938 -1.0625 1.109375 -1.0625 C 1.222656 -1.0625 1.335938 -1.046875 1.453125 -1.015625 C 1.535156 -0.984375 1.710938 -0.894531 1.984375 -0.75 C 2.253906 -0.613281 2.441406 -0.53125 2.546875 -0.5 C 2.710938 -0.445312 2.894531 -0.421875 3.09375 -0.421875 C 3.550781 -0.421875 3.953125 -0.597656 4.296875 -0.953125 C 4.640625 -1.316406 4.8125 -1.742188 4.8125 -2.234375 C 4.8125 -2.597656 4.734375 -2.953125 4.578125 -3.296875 C 4.453125 -3.546875 4.320312 -3.738281 4.1875 -3.875 C 3.988281 -4.050781 3.71875 -4.210938 3.375 -4.359375 C 3.039062 -4.503906 2.695312 -4.578125 2.34375 -4.578125 L 2.125 -4.578125 L 2.125 -4.796875 C 2.476562 -4.835938 2.832031 -4.960938 3.1875 -5.171875 C 3.550781 -5.390625 3.816406 -5.644531 3.984375 -5.9375 C 4.148438 -6.238281 4.234375 -6.570312 4.234375 -6.9375 C 4.234375 -7.40625 4.085938 -7.78125 3.796875 -8.0625 C 3.503906 -8.351562 3.140625 -8.5 2.703125 -8.5 C 1.992188 -8.5 1.40625 -8.125 0.9375 -7.375 Z M 0.703125 -7.484375 " />
</symbol>
<symbol overflow="visible" id="glyph2-4">
<path style="stroke:none;" d="M 6.5 -3.40625 L 6.5 -2.4375 L 5.25 -2.4375 L 5.25 0 L 4.125 0 L 4.125 -2.4375 L 0.21875 -2.4375 L 0.21875 -3.3125 L 4.5 -9.421875 L 5.25 -9.421875 L 5.25 -3.40625 Z M 4.125 -3.40625 L 4.125 -7.984375 L 0.890625 -3.40625 Z M 4.125 -3.40625 " />
</symbol>
<symbol overflow="visible" id="glyph2-5">
<path style="stroke:none;" d="M 0.5 -4.5625 C 0.5 -5.613281 0.65625 -6.519531 0.96875 -7.28125 C 1.289062 -8.039062 1.71875 -8.609375 2.25 -8.984375 C 2.65625 -9.273438 3.078125 -9.421875 3.515625 -9.421875 C 4.222656 -9.421875 4.859375 -9.0625 5.421875 -8.34375 C 6.128906 -7.445312 6.484375 -6.234375 6.484375 -4.703125 C 6.484375 -3.628906 6.328125 -2.71875 6.015625 -1.96875 C 5.703125 -1.226562 5.304688 -0.6875 4.828125 -0.34375 C 4.347656 -0.0078125 3.890625 0.15625 3.453125 0.15625 C 2.566406 0.15625 1.832031 -0.359375 1.25 -1.390625 C 0.75 -2.273438 0.5 -3.332031 0.5 -4.5625 Z M 1.84375 -4.390625 C 1.84375 -3.117188 2 -2.082031 2.3125 -1.28125 C 2.570312 -0.601562 2.957031 -0.265625 3.46875 -0.265625 C 3.707031 -0.265625 3.957031 -0.375 4.21875 -0.59375 C 4.488281 -0.8125 4.691406 -1.179688 4.828125 -1.703125 C 5.035156 -2.484375 5.140625 -3.582031 5.140625 -5 C 5.140625 -6.0625 5.03125 -6.941406 4.8125 -7.640625 C 4.65625 -8.160156 4.445312 -8.53125 4.1875 -8.75 C 4 -8.90625 3.773438 -8.984375 3.515625 -8.984375 C 3.203125 -8.984375 2.925781 -8.84375 2.6875 -8.5625 C 2.351562 -8.1875 2.128906 -7.59375 2.015625 -6.78125 C 1.898438 -5.976562 1.84375 -5.179688 1.84375 -4.390625 Z M 1.84375 -4.390625 " />
</symbol>
<symbol overflow="visible" id="glyph2-6">
<path style="stroke:none;" d="M 9.484375 -9.453125 L 2.75 0.375 L 2.140625 0.375 L 8.875 -9.453125 Z M 2.484375 -9.453125 C 3.097656 -9.453125 3.570312 -9.195312 3.90625 -8.6875 C 4.25 -8.175781 4.421875 -7.59375 4.421875 -6.9375 C 4.421875 -6.144531 4.226562 -5.53125 3.84375 -5.09375 C 3.457031 -4.664062 3 -4.453125 2.46875 -4.453125 C 2.101562 -4.453125 1.769531 -4.550781 1.46875 -4.75 C 1.175781 -4.945312 0.9375 -5.238281 0.75 -5.625 C 0.570312 -6.019531 0.484375 -6.457031 0.484375 -6.9375 C 0.484375 -7.414062 0.570312 -7.851562 0.75 -8.25 C 0.9375 -8.65625 1.1875 -8.957031 1.5 -9.15625 C 1.820312 -9.351562 2.148438 -9.453125 2.484375 -9.453125 Z M 2.453125 -9.0625 C 2.222656 -9.0625 2.019531 -8.925781 1.84375 -8.65625 C 1.664062 -8.382812 1.578125 -7.8125 1.578125 -6.9375 C 1.578125 -6.3125 1.625 -5.832031 1.71875 -5.5 C 1.800781 -5.25 1.921875 -5.054688 2.078125 -4.921875 C 2.179688 -4.835938 2.300781 -4.796875 2.4375 -4.796875 C 2.65625 -4.796875 2.84375 -4.914062 3 -5.15625 C 3.226562 -5.5 3.34375 -6.082031 3.34375 -6.90625 C 3.34375 -7.769531 3.226562 -8.375 3 -8.71875 C 2.851562 -8.945312 2.671875 -9.0625 2.453125 -9.0625 Z M 9.171875 -4.578125 C 9.492188 -4.578125 9.8125 -4.472656 10.125 -4.265625 C 10.445312 -4.066406 10.695312 -3.769531 10.875 -3.375 C 11.050781 -2.988281 11.140625 -2.5625 11.140625 -2.09375 C 11.140625 -1.289062 10.945312 -0.675781 10.5625 -0.25 C 10.175781 0.164062 9.71875 0.375 9.1875 0.375 C 8.851562 0.375 8.53125 0.269531 8.21875 0.0625 C 7.914062 -0.132812 7.671875 -0.421875 7.484375 -0.796875 C 7.304688 -1.179688 7.21875 -1.613281 7.21875 -2.09375 C 7.21875 -2.570312 7.304688 -3.007812 7.484375 -3.40625 C 7.671875 -3.800781 7.914062 -4.09375 8.21875 -4.28125 C 8.53125 -4.476562 8.847656 -4.578125 9.171875 -4.578125 Z M 9.171875 -4.21875 C 8.953125 -4.21875 8.765625 -4.097656 8.609375 -3.859375 C 8.410156 -3.535156 8.3125 -2.929688 8.3125 -2.046875 C 8.3125 -1.234375 8.414062 -0.664062 8.625 -0.34375 C 8.769531 -0.113281 8.953125 0 9.171875 0 C 9.378906 0 9.566406 -0.125 9.734375 -0.375 C 9.953125 -0.707031 10.0625 -1.273438 10.0625 -2.078125 C 10.0625 -2.929688 9.953125 -3.53125 9.734375 -3.875 C 9.585938 -4.101562 9.398438 -4.21875 9.171875 -4.21875 Z M 9.171875 -4.21875 " />
</symbol>
<symbol overflow="visible" id="glyph2-7">
<path style="stroke:none;" d="M 6.25 -9.421875 L 6.25 -9.171875 C 5.65625 -9.117188 5.164062 -9 4.78125 -8.8125 C 4.40625 -8.632812 4.03125 -8.363281 3.65625 -8 C 3.289062 -7.632812 2.984375 -7.222656 2.734375 -6.765625 C 2.492188 -6.316406 2.289062 -5.78125 2.125 -5.15625 C 2.78125 -5.601562 3.4375 -5.828125 4.09375 -5.828125 C 4.726562 -5.828125 5.273438 -5.570312 5.734375 -5.0625 C 6.203125 -4.5625 6.4375 -3.910156 6.4375 -3.109375 C 6.4375 -2.335938 6.203125 -1.632812 5.734375 -1 C 5.171875 -0.226562 4.425781 0.15625 3.5 0.15625 C 2.875 0.15625 2.335938 -0.0507812 1.890625 -0.46875 C 1.023438 -1.28125 0.59375 -2.332031 0.59375 -3.625 C 0.59375 -4.445312 0.757812 -5.226562 1.09375 -5.96875 C 1.425781 -6.71875 1.898438 -7.378906 2.515625 -7.953125 C 3.128906 -8.535156 3.71875 -8.925781 4.28125 -9.125 C 4.84375 -9.320312 5.367188 -9.421875 5.859375 -9.421875 Z M 2.015625 -4.65625 C 1.929688 -4.039062 1.890625 -3.546875 1.890625 -3.171875 C 1.890625 -2.734375 1.96875 -2.257812 2.125 -1.75 C 2.289062 -1.238281 2.535156 -0.832031 2.859375 -0.53125 C 3.085938 -0.320312 3.367188 -0.21875 3.703125 -0.21875 C 4.097656 -0.21875 4.445312 -0.398438 4.75 -0.765625 C 5.0625 -1.140625 5.21875 -1.675781 5.21875 -2.375 C 5.21875 -3.144531 5.0625 -3.8125 4.75 -4.375 C 4.445312 -4.945312 4.015625 -5.234375 3.453125 -5.234375 C 3.273438 -5.234375 3.085938 -5.195312 2.890625 -5.125 C 2.691406 -5.050781 2.398438 -4.894531 2.015625 -4.65625 Z M 2.015625 -4.65625 " />
</symbol>
<symbol overflow="visible" id="glyph2-8">
<path style="stroke:none;" d="M 2.671875 -4.65625 C 1.941406 -5.25 1.472656 -5.726562 1.265625 -6.09375 C 1.054688 -6.457031 0.953125 -6.835938 0.953125 -7.234375 C 0.953125 -7.828125 1.179688 -8.335938 1.640625 -8.765625 C 2.109375 -9.203125 2.722656 -9.421875 3.484375 -9.421875 C 4.234375 -9.421875 4.832031 -9.21875 5.28125 -8.8125 C 5.738281 -8.414062 5.96875 -7.957031 5.96875 -7.4375 C 5.96875 -7.09375 5.84375 -6.738281 5.59375 -6.375 C 5.351562 -6.019531 4.84375 -5.597656 4.0625 -5.109375 C 4.863281 -4.492188 5.394531 -4.007812 5.65625 -3.65625 C 6 -3.195312 6.171875 -2.707031 6.171875 -2.1875 C 6.171875 -1.539062 5.921875 -0.988281 5.421875 -0.53125 C 4.929688 -0.0703125 4.285156 0.15625 3.484375 0.15625 C 2.609375 0.15625 1.925781 -0.113281 1.4375 -0.65625 C 1.039062 -1.101562 0.84375 -1.585938 0.84375 -2.109375 C 0.84375 -2.515625 0.976562 -2.914062 1.25 -3.3125 C 1.53125 -3.71875 2.003906 -4.164062 2.671875 -4.65625 Z M 3.75 -5.375 C 4.289062 -5.875 4.632812 -6.265625 4.78125 -6.546875 C 4.925781 -6.828125 5 -7.148438 5 -7.515625 C 5 -7.984375 4.863281 -8.351562 4.59375 -8.625 C 4.332031 -8.894531 3.96875 -9.03125 3.5 -9.03125 C 3.039062 -9.03125 2.664062 -8.894531 2.375 -8.625 C 2.082031 -8.363281 1.9375 -8.050781 1.9375 -7.6875 C 1.9375 -7.457031 1.992188 -7.222656 2.109375 -6.984375 C 2.234375 -6.742188 2.40625 -6.519531 2.625 -6.3125 Z M 3 -4.390625 C 2.625 -4.078125 2.34375 -3.734375 2.15625 -3.359375 C 1.976562 -2.984375 1.890625 -2.578125 1.890625 -2.140625 C 1.890625 -1.554688 2.046875 -1.085938 2.359375 -0.734375 C 2.679688 -0.378906 3.09375 -0.203125 3.59375 -0.203125 C 4.082031 -0.203125 4.472656 -0.335938 4.765625 -0.609375 C 5.066406 -0.890625 5.21875 -1.226562 5.21875 -1.625 C 5.21875 -1.957031 5.128906 -2.25 4.953125 -2.5 C 4.628906 -2.988281 3.976562 -3.617188 3 -4.390625 Z M 3 -4.390625 " />
</symbol>
<symbol overflow="visible" id="glyph3-0">
<path style="stroke:none;" d="" />
</symbol>
<symbol overflow="visible" id="glyph3-1">
<path style="stroke:none;" d="M 4.65625 -0.265625 L 4.65625 0 L 0.375 0 L 0.375 -0.265625 L 0.734375 -0.265625 C 1.140625 -0.265625 1.4375 -0.390625 1.625 -0.640625 C 1.75 -0.796875 1.8125 -1.171875 1.8125 -1.765625 L 1.8125 -8.234375 C 1.8125 -8.742188 1.78125 -9.078125 1.71875 -9.234375 C 1.664062 -9.359375 1.5625 -9.460938 1.40625 -9.546875 C 1.1875 -9.671875 0.960938 -9.734375 0.734375 -9.734375 L 0.375 -9.734375 L 0.375 -10 L 4.65625 -10 L 4.65625 -9.734375 L 4.296875 -9.734375 C 3.890625 -9.734375 3.59375 -9.613281 3.40625 -9.375 C 3.28125 -9.21875 3.21875 -8.835938 3.21875 -8.234375 L 3.21875 -1.765625 C 3.21875 -1.265625 3.25 -0.929688 3.3125 -0.765625 C 3.363281 -0.640625 3.46875 -0.535156 3.625 -0.453125 C 3.84375 -0.328125 4.066406 -0.265625 4.296875 -0.265625 Z M 4.65625 -0.265625 " />
</symbol>
<symbol overflow="visible" id="glyph3-2">
<path style="stroke:none;" d="M 2.4375 -5.53125 C 3.226562 -6.476562 3.984375 -6.953125 4.703125 -6.953125 C 5.078125 -6.953125 5.394531 -6.859375 5.65625 -6.671875 C 5.925781 -6.492188 6.140625 -6.191406 6.296875 -5.765625 C 6.398438 -5.472656 6.453125 -5.019531 6.453125 -4.40625 L 6.453125 -1.53125 C 6.453125 -1.101562 6.488281 -0.8125 6.5625 -0.65625 C 6.613281 -0.53125 6.695312 -0.429688 6.8125 -0.359375 C 6.9375 -0.296875 7.160156 -0.265625 7.484375 -0.265625 L 7.484375 0 L 4.140625 0 L 4.140625 -0.265625 L 4.28125 -0.265625 C 4.601562 -0.265625 4.828125 -0.3125 4.953125 -0.40625 C 5.078125 -0.5 5.160156 -0.640625 5.203125 -0.828125 C 5.222656 -0.898438 5.234375 -1.132812 5.234375 -1.53125 L 5.234375 -4.296875 C 5.234375 -4.910156 5.15625 -5.351562 5 -5.625 C 4.84375 -5.90625 4.570312 -6.046875 4.1875 -6.046875 C 3.601562 -6.046875 3.019531 -5.726562 2.4375 -5.09375 L 2.4375 -1.53125 C 2.4375 -1.070312 2.460938 -0.785156 2.515625 -0.671875 C 2.585938 -0.535156 2.679688 -0.429688 2.796875 -0.359375 C 2.921875 -0.296875 3.171875 -0.265625 3.546875 -0.265625 L 3.546875 0 L 0.203125 0 L 0.203125 -0.265625 L 0.34375 -0.265625 C 0.6875 -0.265625 0.914062 -0.351562 1.03125 -0.53125 C 1.15625 -0.707031 1.21875 -1.039062 1.21875 -1.53125 L 1.21875 -4.03125 C 1.21875 -4.84375 1.195312 -5.335938 1.15625 -5.515625 C 1.125 -5.691406 1.070312 -5.8125 1 -5.875 C 0.925781 -5.9375 0.820312 -5.96875 0.6875 -5.96875 C 0.550781 -5.96875 0.390625 -5.929688 0.203125 -5.859375 L 0.09375 -6.125 L 2.125 -6.953125 L 2.4375 -6.953125 Z M 2.4375 -5.53125 " />
</symbol>
<symbol overflow="visible" id="glyph3-3">
<path style="stroke:none;" d="M 2.4375 -8.984375 L 2.4375 -6.765625 L 4.015625 -6.765625 L 4.015625 -6.234375 L 2.4375 -6.234375 L 2.4375 -1.859375 C 2.4375 -1.421875 2.5 -1.125 2.625 -0.96875 C 2.75 -0.820312 2.910156 -0.75 3.109375 -0.75 C 3.265625 -0.75 3.421875 -0.796875 3.578125 -0.890625 C 3.734375 -0.992188 3.851562 -1.144531 3.9375 -1.34375 L 4.21875 -1.34375 C 4.050781 -0.863281 3.804688 -0.5 3.484375 -0.25 C 3.171875 -0.0078125 2.847656 0.109375 2.515625 0.109375 C 2.285156 0.109375 2.0625 0.046875 1.84375 -0.078125 C 1.632812 -0.203125 1.476562 -0.378906 1.375 -0.609375 C 1.269531 -0.847656 1.21875 -1.210938 1.21875 -1.703125 L 1.21875 -6.234375 L 0.140625 -6.234375 L 0.140625 -6.484375 C 0.410156 -6.585938 0.6875 -6.769531 0.96875 -7.03125 C 1.257812 -7.289062 1.515625 -7.597656 1.734375 -7.953125 C 1.847656 -8.140625 2.003906 -8.484375 2.203125 -8.984375 Z M 2.4375 -8.984375 " />
</symbol>
<symbol overflow="visible" id="glyph3-4">
<path style="stroke:none;" d="M 1.609375 -4.21875 C 1.597656 -3.207031 1.84375 -2.421875 2.34375 -1.859375 C 2.832031 -1.285156 3.410156 -1 4.078125 -1 C 4.515625 -1 4.894531 -1.117188 5.21875 -1.359375 C 5.550781 -1.597656 5.828125 -2.015625 6.046875 -2.609375 L 6.28125 -2.46875 C 6.175781 -1.789062 5.875 -1.175781 5.375 -0.625 C 4.882812 -0.0703125 4.265625 0.203125 3.515625 0.203125 C 2.703125 0.203125 2.003906 -0.109375 1.421875 -0.734375 C 0.847656 -1.367188 0.5625 -2.222656 0.5625 -3.296875 C 0.5625 -4.453125 0.859375 -5.351562 1.453125 -6 C 2.046875 -6.644531 2.789062 -6.96875 3.6875 -6.96875 C 4.4375 -6.96875 5.054688 -6.71875 5.546875 -6.21875 C 6.035156 -5.71875 6.28125 -5.050781 6.28125 -4.21875 Z M 1.609375 -4.640625 L 4.734375 -4.640625 C 4.710938 -5.078125 4.660156 -5.382812 4.578125 -5.5625 C 4.453125 -5.832031 4.269531 -6.046875 4.03125 -6.203125 C 3.789062 -6.359375 3.535156 -6.4375 3.265625 -6.4375 C 2.859375 -6.4375 2.492188 -6.273438 2.171875 -5.953125 C 1.847656 -5.640625 1.660156 -5.203125 1.609375 -4.640625 Z M 1.609375 -4.640625 " />
</symbol>
<symbol overflow="visible" id="glyph3-5">
<path style="stroke:none;" d="M 2.453125 -6.953125 L 2.453125 -5.4375 C 3.015625 -6.445312 3.59375 -6.953125 4.1875 -6.953125 C 4.457031 -6.953125 4.679688 -6.867188 4.859375 -6.703125 C 5.035156 -6.546875 5.125 -6.359375 5.125 -6.140625 C 5.125 -5.941406 5.0625 -5.773438 4.9375 -5.640625 C 4.8125 -5.515625 4.660156 -5.453125 4.484375 -5.453125 C 4.304688 -5.453125 4.109375 -5.535156 3.890625 -5.703125 C 3.679688 -5.878906 3.523438 -5.96875 3.421875 -5.96875 C 3.335938 -5.96875 3.242188 -5.914062 3.140625 -5.8125 C 2.910156 -5.613281 2.679688 -5.28125 2.453125 -4.8125 L 2.453125 -1.578125 C 2.453125 -1.203125 2.5 -0.921875 2.59375 -0.734375 C 2.65625 -0.597656 2.765625 -0.484375 2.921875 -0.390625 C 3.085938 -0.304688 3.320312 -0.265625 3.625 -0.265625 L 3.625 0 L 0.171875 0 L 0.171875 -0.265625 C 0.515625 -0.265625 0.769531 -0.316406 0.9375 -0.421875 C 1.0625 -0.503906 1.144531 -0.628906 1.1875 -0.796875 C 1.21875 -0.878906 1.234375 -1.117188 1.234375 -1.515625 L 1.234375 -4.140625 C 1.234375 -4.921875 1.21875 -5.382812 1.1875 -5.53125 C 1.15625 -5.6875 1.09375 -5.796875 1 -5.859375 C 0.914062 -5.929688 0.8125 -5.96875 0.6875 -5.96875 C 0.53125 -5.96875 0.359375 -5.929688 0.171875 -5.859375 L 0.09375 -6.125 L 2.140625 -6.953125 Z M 2.453125 -6.953125 " />
</symbol>
<symbol overflow="visible" id="glyph3-6">
<path style="stroke:none;" d="M 0.125 -6.765625 L 3.3125 -6.765625 L 3.3125 -6.484375 L 3.09375 -6.484375 C 2.90625 -6.484375 2.757812 -6.4375 2.65625 -6.34375 C 2.5625 -6.25 2.515625 -6.125 2.515625 -5.96875 C 2.515625 -5.789062 2.5625 -5.585938 2.65625 -5.359375 L 4.234375 -1.625 L 5.8125 -5.5 C 5.925781 -5.769531 5.984375 -5.976562 5.984375 -6.125 C 5.984375 -6.195312 5.960938 -6.253906 5.921875 -6.296875 C 5.867188 -6.367188 5.800781 -6.414062 5.71875 -6.4375 C 5.632812 -6.46875 5.460938 -6.484375 5.203125 -6.484375 L 5.203125 -6.765625 L 7.421875 -6.765625 L 7.421875 -6.484375 C 7.160156 -6.460938 6.984375 -6.410156 6.890625 -6.328125 C 6.710938 -6.179688 6.554688 -5.9375 6.421875 -5.59375 L 4.015625 0.203125 L 3.71875 0.203125 L 1.3125 -5.5 C 1.195312 -5.757812 1.085938 -5.945312 0.984375 -6.0625 C 0.890625 -6.175781 0.769531 -6.273438 0.625 -6.359375 C 0.539062 -6.398438 0.375 -6.441406 0.125 -6.484375 Z M 0.125 -6.765625 " />
</symbol>
<symbol overflow="visible" id="glyph3-7">
<path style="stroke:none;" d="M 2.1875 -10.484375 C 2.394531 -10.484375 2.570312 -10.410156 2.71875 -10.265625 C 2.863281 -10.128906 2.9375 -9.957031 2.9375 -9.75 C 2.9375 -9.539062 2.863281 -9.363281 2.71875 -9.21875 C 2.570312 -9.070312 2.394531 -9 2.1875 -9 C 1.976562 -9 1.800781 -9.070312 1.65625 -9.21875 C 1.507812 -9.363281 1.4375 -9.539062 1.4375 -9.75 C 1.4375 -9.957031 1.507812 -10.128906 1.65625 -10.265625 C 1.800781 -10.410156 1.976562 -10.484375 2.1875 -10.484375 Z M 2.796875 -6.953125 L 2.796875 -1.53125 C 2.796875 -1.101562 2.828125 -0.816406 2.890625 -0.671875 C 2.953125 -0.535156 3.039062 -0.429688 3.15625 -0.359375 C 3.28125 -0.296875 3.503906 -0.265625 3.828125 -0.265625 L 3.828125 0 L 0.546875 0 L 0.546875 -0.265625 C 0.878906 -0.265625 1.097656 -0.296875 1.203125 -0.359375 C 1.316406 -0.421875 1.40625 -0.523438 1.46875 -0.671875 C 1.539062 -0.828125 1.578125 -1.113281 1.578125 -1.53125 L 1.578125 -4.125 C 1.578125 -4.863281 1.554688 -5.34375 1.515625 -5.5625 C 1.472656 -5.71875 1.414062 -5.820312 1.34375 -5.875 C 1.269531 -5.9375 1.171875 -5.96875 1.046875 -5.96875 C 0.910156 -5.96875 0.742188 -5.929688 0.546875 -5.859375 L 0.4375 -6.125 L 2.484375 -6.953125 Z M 2.796875 -6.953125 " />
</symbol>
<symbol overflow="visible" id="glyph3-8">
<path style="stroke:none;" d="M 3.78125 -6.953125 C 4.800781 -6.953125 5.617188 -6.566406 6.234375 -5.796875 C 6.765625 -5.128906 7.03125 -4.363281 7.03125 -3.5 C 7.03125 -2.894531 6.882812 -2.28125 6.59375 -1.65625 C 6.300781 -1.039062 5.898438 -0.578125 5.390625 -0.265625 C 4.890625 0.046875 4.328125 0.203125 3.703125 0.203125 C 2.679688 0.203125 1.867188 -0.203125 1.265625 -1.015625 C 0.765625 -1.691406 0.515625 -2.457031 0.515625 -3.3125 C 0.515625 -3.925781 0.664062 -4.539062 0.96875 -5.15625 C 1.28125 -5.769531 1.6875 -6.222656 2.1875 -6.515625 C 2.6875 -6.804688 3.21875 -6.953125 3.78125 -6.953125 Z M 3.546875 -6.484375 C 3.285156 -6.484375 3.023438 -6.40625 2.765625 -6.25 C 2.503906 -6.09375 2.289062 -5.816406 2.125 -5.421875 C 1.957031 -5.035156 1.875 -4.539062 1.875 -3.9375 C 1.875 -2.945312 2.066406 -2.09375 2.453125 -1.375 C 2.847656 -0.664062 3.367188 -0.3125 4.015625 -0.3125 C 4.492188 -0.3125 4.882812 -0.507812 5.1875 -0.90625 C 5.5 -1.300781 5.65625 -1.976562 5.65625 -2.9375 C 5.65625 -4.132812 5.398438 -5.078125 4.890625 -5.765625 C 4.535156 -6.242188 4.085938 -6.484375 3.546875 -6.484375 Z M 3.546875 -6.484375 " />
</symbol>
<symbol overflow="visible" id="glyph3-9">
<path style="stroke:none;" d="" />
</symbol>
<symbol overflow="visible" id="glyph3-10">
<path style="stroke:none;" d="M 2.796875 -10.484375 L 2.796875 -1.53125 C 2.796875 -1.101562 2.828125 -0.820312 2.890625 -0.6875 C 2.953125 -0.550781 3.046875 -0.445312 3.171875 -0.375 C 3.296875 -0.300781 3.535156 -0.265625 3.890625 -0.265625 L 3.890625 0 L 0.578125 0 L 0.578125 -0.265625 C 0.890625 -0.265625 1.097656 -0.296875 1.203125 -0.359375 C 1.316406 -0.421875 1.40625 -0.523438 1.46875 -0.671875 C 1.539062 -0.828125 1.578125 -1.113281 1.578125 -1.53125 L 1.578125 -7.671875 C 1.578125 -8.429688 1.554688 -8.894531 1.515625 -9.0625 C 1.484375 -9.238281 1.425781 -9.359375 1.34375 -9.421875 C 1.269531 -9.492188 1.175781 -9.53125 1.0625 -9.53125 C 0.9375 -9.53125 0.773438 -9.488281 0.578125 -9.40625 L 0.453125 -9.671875 L 2.46875 -10.484375 Z M 2.796875 -10.484375 " />
</symbol>
<symbol overflow="visible" id="glyph3-11">
<path style="stroke:none;" d="M 4.296875 -0.96875 C 3.609375 -0.4375 3.175781 -0.128906 3 -0.046875 C 2.726562 0.078125 2.441406 0.140625 2.140625 0.140625 C 1.679688 0.140625 1.296875 -0.015625 0.984375 -0.328125 C 0.679688 -0.648438 0.53125 -1.070312 0.53125 -1.59375 C 0.53125 -1.925781 0.609375 -2.210938 0.765625 -2.453125 C 0.960938 -2.785156 1.3125 -3.097656 1.8125 -3.390625 C 2.3125 -3.691406 3.140625 -4.054688 4.296875 -4.484375 L 4.296875 -4.75 C 4.296875 -5.414062 4.1875 -5.875 3.96875 -6.125 C 3.757812 -6.375 3.453125 -6.5 3.046875 -6.5 C 2.734375 -6.5 2.488281 -6.414062 2.3125 -6.25 C 2.125 -6.082031 2.03125 -5.894531 2.03125 -5.6875 L 2.046875 -5.25 C 2.046875 -5.019531 1.988281 -4.84375 1.875 -4.71875 C 1.757812 -4.601562 1.609375 -4.546875 1.421875 -4.546875 C 1.234375 -4.546875 1.082031 -4.609375 0.96875 -4.734375 C 0.851562 -4.859375 0.796875 -5.035156 0.796875 -5.265625 C 0.796875 -5.679688 1.007812 -6.066406 1.4375 -6.421875 C 1.875 -6.773438 2.484375 -6.953125 3.265625 -6.953125 C 3.867188 -6.953125 4.363281 -6.851562 4.75 -6.65625 C 5.03125 -6.5 5.242188 -6.257812 5.390625 -5.9375 C 5.472656 -5.726562 5.515625 -5.296875 5.515625 -4.640625 L 5.515625 -2.34375 C 5.515625 -1.695312 5.523438 -1.300781 5.546875 -1.15625 C 5.578125 -1.007812 5.617188 -0.910156 5.671875 -0.859375 C 5.734375 -0.816406 5.800781 -0.796875 5.875 -0.796875 C 5.945312 -0.796875 6.015625 -0.8125 6.078125 -0.84375 C 6.179688 -0.90625 6.378906 -1.085938 6.671875 -1.390625 L 6.671875 -0.96875 C 6.117188 -0.238281 5.59375 0.125 5.09375 0.125 C 4.851562 0.125 4.660156 0.0390625 4.515625 -0.125 C 4.378906 -0.289062 4.304688 -0.570312 4.296875 -0.96875 Z M 4.296875 -1.453125 L 4.296875 -4.03125 C 3.554688 -3.726562 3.078125 -3.519531 2.859375 -3.40625 C 2.472656 -3.1875 2.195312 -2.957031 2.03125 -2.71875 C 1.863281 -2.488281 1.78125 -2.234375 1.78125 -1.953125 C 1.78125 -1.597656 1.882812 -1.300781 2.09375 -1.0625 C 2.300781 -0.832031 2.546875 -0.71875 2.828125 -0.71875 C 3.203125 -0.71875 3.691406 -0.960938 4.296875 -1.453125 Z M 4.296875 -1.453125 " />
</symbol>
<symbol overflow="visible" id="glyph3-12">
<path style="stroke:none;" d="M 0.09375 -6.765625 L 3.234375 -6.765625 L 3.234375 -6.484375 L 3.078125 -6.484375 C 2.859375 -6.484375 2.691406 -6.4375 2.578125 -6.34375 C 2.472656 -6.25 2.421875 -6.128906 2.421875 -5.984375 C 2.421875 -5.796875 2.5 -5.53125 2.65625 -5.1875 L 4.3125 -1.78125 L 5.828125 -5.515625 C 5.910156 -5.710938 5.953125 -5.910156 5.953125 -6.109375 C 5.953125 -6.191406 5.929688 -6.257812 5.890625 -6.3125 C 5.847656 -6.363281 5.785156 -6.40625 5.703125 -6.4375 C 5.617188 -6.46875 5.472656 -6.484375 5.265625 -6.484375 L 5.265625 -6.765625 L 7.46875 -6.765625 L 7.46875 -6.484375 C 7.28125 -6.460938 7.132812 -6.421875 7.03125 -6.359375 C 6.9375 -6.304688 6.832031 -6.195312 6.71875 -6.03125 C 6.675781 -5.96875 6.59375 -5.78125 6.46875 -5.46875 L 3.71875 1.28125 C 3.445312 1.925781 3.097656 2.414062 2.671875 2.75 C 2.242188 3.09375 1.832031 3.265625 1.4375 3.265625 C 1.144531 3.265625 0.90625 3.179688 0.71875 3.015625 C 0.53125 2.847656 0.4375 2.65625 0.4375 2.4375 C 0.4375 2.226562 0.503906 2.0625 0.640625 1.9375 C 0.773438 1.8125 0.957031 1.75 1.1875 1.75 C 1.351562 1.75 1.578125 1.800781 1.859375 1.90625 C 2.054688 1.976562 2.179688 2.015625 2.234375 2.015625 C 2.378906 2.015625 2.535156 1.9375 2.703125 1.78125 C 2.878906 1.632812 3.054688 1.34375 3.234375 0.90625 L 3.71875 -0.265625 L 1.296875 -5.359375 C 1.222656 -5.515625 1.101562 -5.707031 0.9375 -5.9375 C 0.8125 -6.101562 0.710938 -6.21875 0.640625 -6.28125 C 0.523438 -6.351562 0.34375 -6.421875 0.09375 -6.484375 Z M 0.09375 -6.765625 " />
</symbol>
<symbol overflow="visible" id="glyph3-13">
<path style="stroke:none;" d="M 6.65625 0.109375 C 7.15625 0.972656 7.695312 1.609375 8.28125 2.015625 C 8.863281 2.429688 9.523438 2.664062 10.265625 2.71875 L 10.265625 2.953125 C 9.585938 2.929688 8.863281 2.796875 8.09375 2.546875 C 7.320312 2.296875 6.585938 1.953125 5.890625 1.515625 C 5.203125 1.078125 4.609375 0.609375 4.109375 0.109375 C 3.398438 -0.171875 2.835938 -0.472656 2.421875 -0.796875 C 1.828125 -1.273438 1.363281 -1.859375 1.03125 -2.546875 C 0.695312 -3.242188 0.53125 -4.070312 0.53125 -5.03125 C 0.53125 -6.519531 1.015625 -7.757812 1.984375 -8.75 C 2.953125 -9.738281 4.125 -10.234375 5.5 -10.234375 C 6.8125 -10.234375 7.945312 -9.738281 8.90625 -8.75 C 9.863281 -7.757812 10.34375 -6.507812 10.34375 -5 C 10.34375 -3.769531 10 -2.691406 9.3125 -1.765625 C 8.632812 -0.847656 7.75 -0.222656 6.65625 0.109375 Z M 5.421875 -9.671875 C 4.523438 -9.671875 3.800781 -9.347656 3.25 -8.703125 C 2.5625 -7.898438 2.21875 -6.675781 2.21875 -5.03125 C 2.21875 -3.40625 2.566406 -2.15625 3.265625 -1.28125 C 3.804688 -0.601562 4.523438 -0.265625 5.421875 -0.265625 C 6.335938 -0.265625 7.082031 -0.601562 7.65625 -1.28125 C 8.3125 -2.082031 8.640625 -3.257812 8.640625 -4.8125 C 8.640625 -6.007812 8.457031 -7.015625 8.09375 -7.828125 C 7.820312 -8.453125 7.453125 -8.914062 6.984375 -9.21875 C 6.515625 -9.519531 5.992188 -9.671875 5.421875 -9.671875 Z M 5.421875 -9.671875 " />
</symbol>
<symbol overflow="visible" id="glyph3-14">
<path style="stroke:none;" d="M 0.09375 -6.765625 L 2.921875 -6.765625 L 2.921875 -6.484375 C 2.660156 -6.460938 2.488281 -6.414062 2.40625 -6.34375 C 2.332031 -6.269531 2.296875 -6.164062 2.296875 -6.03125 C 2.296875 -5.875 2.335938 -5.6875 2.421875 -5.46875 L 3.859375 -1.59375 L 5.3125 -4.75 L 4.9375 -5.75 C 4.820312 -6.039062 4.664062 -6.242188 4.46875 -6.359375 C 4.363281 -6.429688 4.160156 -6.472656 3.859375 -6.484375 L 3.859375 -6.765625 L 7.078125 -6.765625 L 7.078125 -6.484375 C 6.722656 -6.472656 6.472656 -6.410156 6.328125 -6.296875 C 6.234375 -6.210938 6.1875 -6.085938 6.1875 -5.921875 C 6.1875 -5.816406 6.203125 -5.710938 6.234375 -5.609375 L 7.78125 -1.734375 L 9.203125 -5.46875 C 9.296875 -5.738281 9.34375 -5.953125 9.34375 -6.109375 C 9.34375 -6.203125 9.296875 -6.285156 9.203125 -6.359375 C 9.109375 -6.429688 8.921875 -6.472656 8.640625 -6.484375 L 8.640625 -6.765625 L 10.765625 -6.765625 L 10.765625 -6.484375 C 10.335938 -6.421875 10.023438 -6.128906 9.828125 -5.609375 L 7.5625 0.203125 L 7.265625 0.203125 L 5.578125 -4.109375 L 3.609375 0.203125 L 3.328125 0.203125 L 1.171875 -5.46875 C 1.023438 -5.832031 0.878906 -6.078125 0.734375 -6.203125 C 0.597656 -6.328125 0.382812 -6.421875 0.09375 -6.484375 Z M 0.09375 -6.765625 " />
</symbol>
<symbol overflow="visible" id="glyph3-15">
<path style="stroke:none;" d="M 9.28125 -10.234375 L 9.53125 -7.078125 L 9.28125 -7.078125 C 9.007812 -7.859375 8.671875 -8.453125 8.265625 -8.859375 C 7.671875 -9.429688 6.90625 -9.71875 5.96875 -9.71875 C 4.695312 -9.71875 3.726562 -9.210938 3.0625 -8.203125 C 2.507812 -7.347656 2.234375 -6.335938 2.234375 -5.171875 C 2.234375 -4.210938 2.414062 -3.335938 2.78125 -2.546875 C 3.144531 -1.765625 3.625 -1.1875 4.21875 -0.8125 C 4.820312 -0.445312 5.441406 -0.265625 6.078125 -0.265625 C 6.441406 -0.265625 6.796875 -0.3125 7.140625 -0.40625 C 7.484375 -0.5 7.816406 -0.640625 8.140625 -0.828125 L 8.140625 -3.71875 C 8.140625 -4.21875 8.097656 -4.546875 8.015625 -4.703125 C 7.941406 -4.859375 7.820312 -4.972656 7.65625 -5.046875 C 7.5 -5.128906 7.222656 -5.171875 6.828125 -5.171875 L 6.828125 -5.453125 L 10.703125 -5.453125 L 10.703125 -5.171875 L 10.515625 -5.171875 C 10.128906 -5.171875 9.863281 -5.046875 9.71875 -4.796875 C 9.625 -4.609375 9.578125 -4.25 9.578125 -3.71875 L 9.578125 -0.65625 C 9.015625 -0.351562 8.457031 -0.128906 7.90625 0.015625 C 7.351562 0.160156 6.738281 0.234375 6.0625 0.234375 C 4.132812 0.234375 2.664062 -0.382812 1.65625 -1.625 C 0.90625 -2.5625 0.53125 -3.632812 0.53125 -4.84375 C 0.53125 -5.726562 0.742188 -6.570312 1.171875 -7.375 C 1.671875 -8.332031 2.359375 -9.070312 3.234375 -9.59375 C 3.960938 -10.019531 4.828125 -10.234375 5.828125 -10.234375 C 6.191406 -10.234375 6.519531 -10.203125 6.8125 -10.140625 C 7.113281 -10.085938 7.535156 -9.957031 8.078125 -9.75 C 8.359375 -9.644531 8.546875 -9.59375 8.640625 -9.59375 C 8.734375 -9.59375 8.8125 -9.632812 8.875 -9.71875 C 8.945312 -9.8125 8.988281 -9.984375 9 -10.234375 Z M 9.28125 -10.234375 " />
</symbol>
<symbol overflow="visible" id="glyph3-16">
<path style="stroke:none;" d="M 2.484375 -5.515625 C 2.972656 -6.003906 3.257812 -6.285156 3.34375 -6.359375 C 3.570312 -6.546875 3.8125 -6.691406 4.0625 -6.796875 C 4.320312 -6.898438 4.578125 -6.953125 4.828125 -6.953125 C 5.242188 -6.953125 5.601562 -6.828125 5.90625 -6.578125 C 6.21875 -6.335938 6.425781 -5.984375 6.53125 -5.515625 C 7.039062 -6.109375 7.46875 -6.492188 7.8125 -6.671875 C 8.164062 -6.859375 8.523438 -6.953125 8.890625 -6.953125 C 9.242188 -6.953125 9.5625 -6.859375 9.84375 -6.671875 C 10.125 -6.492188 10.34375 -6.195312 10.5 -5.78125 C 10.613281 -5.488281 10.671875 -5.039062 10.671875 -4.4375 L 10.671875 -1.53125 C 10.671875 -1.101562 10.703125 -0.8125 10.765625 -0.65625 C 10.816406 -0.550781 10.90625 -0.457031 11.03125 -0.375 C 11.164062 -0.300781 11.382812 -0.265625 11.6875 -0.265625 L 11.6875 0 L 8.34375 0 L 8.34375 -0.265625 L 8.484375 -0.265625 C 8.773438 -0.265625 9.003906 -0.320312 9.171875 -0.4375 C 9.285156 -0.507812 9.363281 -0.632812 9.40625 -0.8125 C 9.425781 -0.894531 9.4375 -1.132812 9.4375 -1.53125 L 9.4375 -4.4375 C 9.4375 -4.988281 9.375 -5.375 9.25 -5.59375 C 9.050781 -5.914062 8.742188 -6.078125 8.328125 -6.078125 C 8.066406 -6.078125 7.800781 -6.007812 7.53125 -5.875 C 7.269531 -5.75 6.953125 -5.507812 6.578125 -5.15625 L 6.5625 -5.0625 L 6.578125 -4.75 L 6.578125 -1.53125 C 6.578125 -1.0625 6.601562 -0.769531 6.65625 -0.65625 C 6.707031 -0.550781 6.800781 -0.457031 6.9375 -0.375 C 7.082031 -0.300781 7.332031 -0.265625 7.6875 -0.265625 L 7.6875 0 L 4.265625 0 L 4.265625 -0.265625 C 4.640625 -0.265625 4.894531 -0.304688 5.03125 -0.390625 C 5.175781 -0.484375 5.273438 -0.617188 5.328125 -0.796875 C 5.347656 -0.878906 5.359375 -1.125 5.359375 -1.53125 L 5.359375 -4.4375 C 5.359375 -4.988281 5.28125 -5.382812 5.125 -5.625 C 4.90625 -5.9375 4.601562 -6.09375 4.21875 -6.09375 C 3.945312 -6.09375 3.679688 -6.019531 3.421875 -5.875 C 3.015625 -5.664062 2.703125 -5.425781 2.484375 -5.15625 L 2.484375 -1.53125 C 2.484375 -1.082031 2.507812 -0.789062 2.5625 -0.65625 C 2.625 -0.53125 2.71875 -0.429688 2.84375 -0.359375 C 2.96875 -0.296875 3.210938 -0.265625 3.578125 -0.265625 L 3.578125 0 L 0.234375 0 L 0.234375 -0.265625 C 0.546875 -0.265625 0.757812 -0.296875 0.875 -0.359375 C 1 -0.429688 1.09375 -0.539062 1.15625 -0.6875 C 1.226562 -0.832031 1.265625 -1.113281 1.265625 -1.53125 L 1.265625 -4.109375 C 1.265625 -4.847656 1.238281 -5.328125 1.1875 -5.546875 C 1.15625 -5.710938 1.101562 -5.820312 1.03125 -5.875 C 0.957031 -5.9375 0.859375 -5.96875 0.734375 -5.96875 C 0.597656 -5.96875 0.429688 -5.929688 0.234375 -5.859375 L 0.125 -6.125 L 2.15625 -6.953125 L 2.484375 -6.953125 Z M 2.484375 -5.515625 " />
</symbol>
<symbol overflow="visible" id="glyph4-0">
<path style="stroke:none;" d="" />
</symbol>
<symbol overflow="visible" id="glyph4-1">
<path style="stroke:none;" d="M -10.234375 -6.921875 L -6.765625 -6.921875 L -6.765625 -6.65625 C -7.429688 -6.5625 -7.960938 -6.398438 -8.359375 -6.171875 C -8.753906 -5.941406 -9.066406 -5.613281 -9.296875 -5.1875 C -9.523438 -4.769531 -9.640625 -4.335938 -9.640625 -3.890625 C -9.640625 -3.378906 -9.484375 -2.957031 -9.171875 -2.625 C -8.859375 -2.289062 -8.503906 -2.125 -8.109375 -2.125 C -7.804688 -2.125 -7.53125 -2.226562 -7.28125 -2.4375 C -6.90625 -2.738281 -6.410156 -3.460938 -5.796875 -4.609375 C -5.296875 -5.546875 -4.910156 -6.179688 -4.640625 -6.515625 C -4.367188 -6.859375 -4.050781 -7.125 -3.6875 -7.3125 C -3.332031 -7.5 -2.953125 -7.59375 -2.546875 -7.59375 C -1.796875 -7.59375 -1.144531 -7.296875 -0.59375 -6.703125 C -0.0390625 -6.117188 0.234375 -5.363281 0.234375 -4.4375 C 0.234375 -4.144531 0.207031 -3.875 0.15625 -3.625 C 0.132812 -3.46875 0.046875 -3.148438 -0.109375 -2.671875 C -0.265625 -2.191406 -0.34375 -1.890625 -0.34375 -1.765625 C -0.34375 -1.640625 -0.304688 -1.539062 -0.234375 -1.46875 C -0.160156 -1.394531 -0.00390625 -1.34375 0.234375 -1.3125 L 0.234375 -1.046875 L -3.203125 -1.046875 L -3.203125 -1.3125 C -2.484375 -1.4375 -1.945312 -1.609375 -1.59375 -1.828125 C -1.238281 -2.046875 -0.941406 -2.375 -0.703125 -2.8125 C -0.460938 -3.257812 -0.34375 -3.75 -0.34375 -4.28125 C -0.34375 -4.894531 -0.503906 -5.378906 -0.828125 -5.734375 C -1.160156 -6.097656 -1.546875 -6.28125 -1.984375 -6.28125 C -2.234375 -6.28125 -2.484375 -6.210938 -2.734375 -6.078125 C -2.984375 -5.941406 -3.21875 -5.726562 -3.4375 -5.4375 C -3.582031 -5.25 -3.894531 -4.726562 -4.375 -3.875 C -4.851562 -3.019531 -5.234375 -2.410156 -5.515625 -2.046875 C -5.804688 -1.679688 -6.125 -1.40625 -6.46875 -1.21875 C -6.8125 -1.03125 -7.1875 -0.9375 -7.59375 -0.9375 C -8.3125 -0.9375 -8.929688 -1.210938 -9.453125 -1.765625 C -9.972656 -2.316406 -10.234375 -3.019531 -10.234375 -3.875 C -10.234375 -4.40625 -10.101562 -4.96875 -9.84375 -5.5625 C -9.71875 -5.832031 -9.65625 -6.023438 -9.65625 -6.140625 C -9.65625 -6.273438 -9.691406 -6.378906 -9.765625 -6.453125 C -9.847656 -6.535156 -10.003906 -6.601562 -10.234375 -6.65625 Z M -10.234375 -6.921875 " />
</symbol>
<symbol overflow="visible" id="glyph4-2">
<path style="stroke:none;" d="M -6.953125 -3.78125 C -6.953125 -4.800781 -6.566406 -5.617188 -5.796875 -6.234375 C -5.128906 -6.765625 -4.363281 -7.03125 -3.5 -7.03125 C -2.894531 -7.03125 -2.28125 -6.882812 -1.65625 -6.59375 C -1.039062 -6.300781 -0.578125 -5.898438 -0.265625 -5.390625 C 0.046875 -4.890625 0.203125 -4.328125 0.203125 -3.703125 C 0.203125 -2.679688 -0.203125 -1.867188 -1.015625 -1.265625 C -1.691406 -0.765625 -2.457031 -0.515625 -3.3125 -0.515625 C -3.925781 -0.515625 -4.539062 -0.664062 -5.15625 -0.96875 C -5.769531 -1.28125 -6.222656 -1.6875 -6.515625 -2.1875 C -6.804688 -2.6875 -6.953125 -3.21875 -6.953125 -3.78125 Z M -6.484375 -3.546875 C -6.484375 -3.285156 -6.40625 -3.023438 -6.25 -2.765625 C -6.09375 -2.503906 -5.816406 -2.289062 -5.421875 -2.125 C -5.035156 -1.957031 -4.539062 -1.875 -3.9375 -1.875 C -2.945312 -1.875 -2.09375 -2.066406 -1.375 -2.453125 C -0.664062 -2.847656 -0.3125 -3.367188 -0.3125 -4.015625 C -0.3125 -4.492188 -0.507812 -4.882812 -0.90625 -5.1875 C -1.300781 -5.5 -1.976562 -5.65625 -2.9375 -5.65625 C -4.132812 -5.65625 -5.078125 -5.398438 -5.765625 -4.890625 C -6.242188 -4.535156 -6.484375 -4.085938 -6.484375 -3.546875 Z M -6.484375 -3.546875 " />
</symbol>
<symbol overflow="visible" id="glyph4-3">
<path style="stroke:none;" d="M -6.765625 -6.390625 L -2.65625 -6.390625 C -1.875 -6.390625 -1.394531 -6.40625 -1.21875 -6.4375 C -1.050781 -6.476562 -0.929688 -6.539062 -0.859375 -6.625 C -0.796875 -6.707031 -0.765625 -6.800781 -0.765625 -6.90625 C -0.765625 -7.0625 -0.804688 -7.234375 -0.890625 -7.421875 L -0.625 -7.53125 L 0.203125 -5.515625 L 0.203125 -5.171875 L -1.21875 -5.171875 C -0.59375 -4.597656 -0.195312 -4.15625 -0.03125 -3.84375 C 0.125 -3.539062 0.203125 -3.222656 0.203125 -2.890625 C 0.203125 -2.503906 0.09375 -2.171875 -0.125 -1.890625 C -0.34375 -1.617188 -0.625 -1.425781 -0.96875 -1.3125 C -1.3125 -1.207031 -1.796875 -1.15625 -2.421875 -1.15625 L -5.4375 -1.15625 C -5.757812 -1.15625 -5.984375 -1.117188 -6.109375 -1.046875 C -6.234375 -0.984375 -6.328125 -0.882812 -6.390625 -0.75 C -6.460938 -0.613281 -6.492188 -0.367188 -6.484375 -0.015625 L -6.765625 -0.015625 L -6.765625 -2.390625 L -2.234375 -2.390625 C -1.609375 -2.390625 -1.195312 -2.5 -1 -2.71875 C -0.800781 -2.9375 -0.703125 -3.195312 -0.703125 -3.5 C -0.703125 -3.71875 -0.765625 -3.957031 -0.890625 -4.21875 C -1.023438 -4.488281 -1.28125 -4.804688 -1.65625 -5.171875 L -5.484375 -5.171875 C -5.867188 -5.171875 -6.128906 -5.101562 -6.265625 -4.96875 C -6.398438 -4.832031 -6.472656 -4.539062 -6.484375 -4.09375 L -6.765625 -4.09375 Z M -6.765625 -6.390625 " />
</symbol>
<symbol overflow="visible" id="glyph4-4">
<path style="stroke:none;" d="M -6.953125 -2.453125 L -5.4375 -2.453125 C -6.445312 -3.015625 -6.953125 -3.59375 -6.953125 -4.1875 C -6.953125 -4.457031 -6.867188 -4.679688 -6.703125 -4.859375 C -6.546875 -5.035156 -6.359375 -5.125 -6.140625 -5.125 C -5.941406 -5.125 -5.773438 -5.0625 -5.640625 -4.9375 C -5.515625 -4.8125 -5.453125 -4.660156 -5.453125 -4.484375 C -5.453125 -4.304688 -5.535156 -4.109375 -5.703125 -3.890625 C -5.878906 -3.679688 -5.96875 -3.523438 -5.96875 -3.421875 C -5.96875 -3.335938 -5.914062 -3.242188 -5.8125 -3.140625 C -5.613281 -2.910156 -5.28125 -2.679688 -4.8125 -2.453125 L -1.578125 -2.453125 C -1.203125 -2.453125 -0.921875 -2.5 -0.734375 -2.59375 C -0.597656 -2.65625 -0.484375 -2.765625 -0.390625 -2.921875 C -0.304688 -3.085938 -0.265625 -3.320312 -0.265625 -3.625 L 0 -3.625 L 0 -0.171875 L -0.265625 -0.171875 C -0.265625 -0.515625 -0.316406 -0.769531 -0.421875 -0.9375 C -0.503906 -1.0625 -0.628906 -1.144531 -0.796875 -1.1875 C -0.878906 -1.21875 -1.117188 -1.234375 -1.515625 -1.234375 L -4.140625 -1.234375 C -4.921875 -1.234375 -5.382812 -1.21875 -5.53125 -1.1875 C -5.6875 -1.15625 -5.796875 -1.09375 -5.859375 -1 C -5.929688 -0.914062 -5.96875 -0.8125 -5.96875 -0.6875 C -5.96875 -0.53125 -5.929688 -0.359375 -5.859375 -0.171875 L -6.125 -0.09375 L -6.953125 -2.140625 Z M -6.953125 -2.453125 " />
</symbol>
<symbol overflow="visible" id="glyph4-5">
<path style="stroke:none;" d="M -2.5625 -6.21875 C -1.675781 -6.03125 -0.992188 -5.671875 -0.515625 -5.140625 C -0.0351562 -4.609375 0.203125 -4.019531 0.203125 -3.375 C 0.203125 -2.613281 -0.113281 -1.945312 -0.75 -1.375 C -1.394531 -0.800781 -2.269531 -0.515625 -3.375 -0.515625 C -4.4375 -0.515625 -5.296875 -0.828125 -5.953125 -1.453125 C -6.617188 -2.085938 -6.953125 -2.847656 -6.953125 -3.734375 C -6.953125 -4.398438 -6.773438 -4.945312 -6.421875 -5.375 C -6.078125 -5.800781 -5.710938 -6.015625 -5.328125 -6.015625 C -5.140625 -6.015625 -4.988281 -5.953125 -4.875 -5.828125 C -4.757812 -5.710938 -4.703125 -5.546875 -4.703125 -5.328125 C -4.703125 -5.046875 -4.796875 -4.828125 -4.984375 -4.671875 C -5.085938 -4.585938 -5.285156 -4.53125 -5.578125 -4.5 C -5.867188 -4.476562 -6.085938 -4.382812 -6.234375 -4.21875 C -6.390625 -4.039062 -6.46875 -3.800781 -6.46875 -3.5 C -6.46875 -3.007812 -6.285156 -2.613281 -5.921875 -2.3125 C -5.429688 -1.914062 -4.789062 -1.71875 -4 -1.71875 C -3.195312 -1.71875 -2.484375 -1.914062 -1.859375 -2.3125 C -1.242188 -2.707031 -0.9375 -3.238281 -0.9375 -3.90625 C -0.9375 -4.394531 -1.101562 -4.828125 -1.4375 -5.203125 C -1.664062 -5.472656 -2.078125 -5.738281 -2.671875 -6 Z M -2.5625 -6.21875 " />
</symbol>
<symbol overflow="visible" id="glyph4-6">
<path style="stroke:none;" d="M -4.21875 -1.609375 C -3.207031 -1.597656 -2.421875 -1.84375 -1.859375 -2.34375 C -1.285156 -2.832031 -1 -3.410156 -1 -4.078125 C -1 -4.515625 -1.117188 -4.894531 -1.359375 -5.21875 C -1.597656 -5.550781 -2.015625 -5.828125 -2.609375 -6.046875 L -2.46875 -6.28125 C -1.789062 -6.175781 -1.175781 -5.875 -0.625 -5.375 C -0.0703125 -4.882812 0.203125 -4.265625 0.203125 -3.515625 C 0.203125 -2.703125 -0.109375 -2.003906 -0.734375 -1.421875 C -1.367188 -0.847656 -2.222656 -0.5625 -3.296875 -0.5625 C -4.453125 -0.5625 -5.351562 -0.859375 -6 -1.453125 C -6.644531 -2.046875 -6.96875 -2.789062 -6.96875 -3.6875 C -6.96875 -4.4375 -6.71875 -5.054688 -6.21875 -5.546875 C -5.71875 -6.035156 -5.050781 -6.28125 -4.21875 -6.28125 Z M -4.640625 -1.609375 L -4.640625 -4.734375 C -5.078125 -4.710938 -5.382812 -4.660156 -5.5625 -4.578125 C -5.832031 -4.453125 -6.046875 -4.269531 -6.203125 -4.03125 C -6.359375 -3.789062 -6.4375 -3.535156 -6.4375 -3.265625 C -6.4375 -2.859375 -6.273438 -2.492188 -5.953125 -2.171875 C -5.640625 -1.847656 -5.203125 -1.660156 -4.640625 -1.609375 Z M -4.640625 -1.609375 " />
</symbol>
<symbol overflow="visible" id="glyph4-7">
<path style="stroke:none;" d="M -3.953125 -0.609375 L -3.953125 -4.421875 L -2.828125 -4.421875 L -2.828125 -0.609375 Z M -3.953125 -0.609375 " />
</symbol>
<symbol overflow="visible" id="glyph4-8">
<path style="stroke:none;" d="M -5.53125 -2.4375 C -6.476562 -3.226562 -6.953125 -3.984375 -6.953125 -4.703125 C -6.953125 -5.078125 -6.859375 -5.394531 -6.671875 -5.65625 C -6.492188 -5.925781 -6.191406 -6.140625 -5.765625 -6.296875 C -5.472656 -6.398438 -5.019531 -6.453125 -4.40625 -6.453125 L -1.53125 -6.453125 C -1.101562 -6.453125 -0.8125 -6.488281 -0.65625 -6.5625 C -0.53125 -6.613281 -0.429688 -6.695312 -0.359375 -6.8125 C -0.296875 -6.9375 -0.265625 -7.160156 -0.265625 -7.484375 L 0 -7.484375 L 0 -4.140625 L -0.265625 -4.140625 L -0.265625 -4.28125 C -0.265625 -4.601562 -0.3125 -4.828125 -0.40625 -4.953125 C -0.5 -5.078125 -0.640625 -5.160156 -0.828125 -5.203125 C -0.898438 -5.222656 -1.132812 -5.234375 -1.53125 -5.234375 L -4.296875 -5.234375 C -4.910156 -5.234375 -5.351562 -5.15625 -5.625 -5 C -5.90625 -4.84375 -6.046875 -4.570312 -6.046875 -4.1875 C -6.046875 -3.601562 -5.726562 -3.019531 -5.09375 -2.4375 L -1.53125 -2.4375 C -1.070312 -2.4375 -0.785156 -2.460938 -0.671875 -2.515625 C -0.535156 -2.585938 -0.429688 -2.679688 -0.359375 -2.796875 C -0.296875 -2.921875 -0.265625 -3.171875 -0.265625 -3.546875 L 0 -3.546875 L 0 -0.203125 L -0.265625 -0.203125 L -0.265625 -0.34375 C -0.265625 -0.6875 -0.351562 -0.914062 -0.53125 -1.03125 C -0.707031 -1.15625 -1.039062 -1.21875 -1.53125 -1.21875 L -4.03125 -1.21875 C -4.84375 -1.21875 -5.335938 -1.195312 -5.515625 -1.15625 C -5.691406 -1.125 -5.8125 -1.070312 -5.875 -1 C -5.9375 -0.925781 -5.96875 -0.820312 -5.96875 -0.6875 C -5.96875 -0.550781 -5.929688 -0.390625 -5.859375 -0.203125 L -6.125 -0.09375 L -6.953125 -2.125 L -6.953125 -2.4375 Z M -5.53125 -2.4375 " />
</symbol>
<symbol overflow="visible" id="glyph4-9">
<path style="stroke:none;" d="M -8.984375 -2.4375 L -6.765625 -2.4375 L -6.765625 -4.015625 L -6.234375 -4.015625 L -6.234375 -2.4375 L -1.859375 -2.4375 C -1.421875 -2.4375 -1.125 -2.5 -0.96875 -2.625 C -0.820312 -2.75 -0.75 -2.910156 -0.75 -3.109375 C -0.75 -3.265625 -0.796875 -3.421875 -0.890625 -3.578125 C -0.992188 -3.734375 -1.144531 -3.851562 -1.34375 -3.9375 L -1.34375 -4.21875 C -0.863281 -4.050781 -0.5 -3.804688 -0.25 -3.484375 C -0.0078125 -3.171875 0.109375 -2.847656 0.109375 -2.515625 C 0.109375 -2.285156 0.046875 -2.0625 -0.078125 -1.84375 C -0.203125 -1.632812 -0.378906 -1.476562 -0.609375 -1.375 C -0.847656 -1.269531 -1.210938 -1.21875 -1.703125 -1.21875 L -6.234375 -1.21875 L -6.234375 -0.140625 L -6.484375 -0.140625 C -6.585938 -0.410156 -6.769531 -0.6875 -7.03125 -0.96875 C -7.289062 -1.257812 -7.597656 -1.515625 -7.953125 -1.734375 C -8.140625 -1.847656 -8.484375 -2.003906 -8.984375 -2.203125 Z M -8.984375 -2.4375 " />
</symbol>
<symbol overflow="visible" id="glyph4-10">
<path style="stroke:none;" d="" />
</symbol>
<symbol overflow="visible" id="glyph4-11">
<path style="stroke:none;" d="M -5.515625 -2.484375 C -6.003906 -2.972656 -6.285156 -3.257812 -6.359375 -3.34375 C -6.546875 -3.570312 -6.691406 -3.8125 -6.796875 -4.0625 C -6.898438 -4.320312 -6.953125 -4.578125 -6.953125 -4.828125 C -6.953125 -5.242188 -6.828125 -5.601562 -6.578125 -5.90625 C -6.335938 -6.21875 -5.984375 -6.425781 -5.515625 -6.53125 C -6.109375 -7.039062 -6.492188 -7.46875 -6.671875 -7.8125 C -6.859375 -8.164062 -6.953125 -8.523438 -6.953125 -8.890625 C -6.953125 -9.242188 -6.859375 -9.5625 -6.671875 -9.84375 C -6.492188 -10.125 -6.195312 -10.34375 -5.78125 -10.5 C -5.488281 -10.613281 -5.039062 -10.671875 -4.4375 -10.671875 L -1.53125 -10.671875 C -1.101562 -10.671875 -0.8125 -10.703125 -0.65625 -10.765625 C -0.550781 -10.816406 -0.457031 -10.90625 -0.375 -11.03125 C -0.300781 -11.164062 -0.265625 -11.382812 -0.265625 -11.6875 L 0 -11.6875 L 0 -8.34375 L -0.265625 -8.34375 L -0.265625 -8.484375 C -0.265625 -8.773438 -0.320312 -9.003906 -0.4375 -9.171875 C -0.507812 -9.285156 -0.632812 -9.363281 -0.8125 -9.40625 C -0.894531 -9.425781 -1.132812 -9.4375 -1.53125 -9.4375 L -4.4375 -9.4375 C -4.988281 -9.4375 -5.375 -9.375 -5.59375 -9.25 C -5.914062 -9.050781 -6.078125 -8.742188 -6.078125 -8.328125 C -6.078125 -8.066406 -6.007812 -7.800781 -5.875 -7.53125 C -5.75 -7.269531 -5.507812 -6.953125 -5.15625 -6.578125 L -5.0625 -6.5625 L -4.75 -6.578125 L -1.53125 -6.578125 C -1.0625 -6.578125 -0.769531 -6.601562 -0.65625 -6.65625 C -0.550781 -6.707031 -0.457031 -6.800781 -0.375 -6.9375 C -0.300781 -7.082031 -0.265625 -7.332031 -0.265625 -7.6875 L 0 -7.6875 L 0 -4.265625 L -0.265625 -4.265625 C -0.265625 -4.640625 -0.304688 -4.894531 -0.390625 -5.03125 C -0.484375 -5.175781 -0.617188 -5.273438 -0.796875 -5.328125 C -0.878906 -5.347656 -1.125 -5.359375 -1.53125 -5.359375 L -4.4375 -5.359375 C -4.988281 -5.359375 -5.382812 -5.28125 -5.625 -5.125 C -5.9375 -4.90625 -6.09375 -4.601562 -6.09375 -4.21875 C -6.09375 -3.945312 -6.019531 -3.679688 -5.875 -3.421875 C -5.664062 -3.015625 -5.425781 -2.703125 -5.15625 -2.484375 L -1.53125 -2.484375 C -1.082031 -2.484375 -0.789062 -2.507812 -0.65625 -2.5625 C -0.53125 -2.625 -0.429688 -2.71875 -0.359375 -2.84375 C -0.296875 -2.96875 -0.265625 -3.210938 -0.265625 -3.578125 L 0 -3.578125 L 0 -0.234375 L -0.265625 -0.234375 C -0.265625 -0.546875 -0.296875 -0.757812 -0.359375 -0.875 C -0.429688 -1 -0.539062 -1.09375 -0.6875 -1.15625 C -0.832031 -1.226562 -1.113281 -1.265625 -1.53125 -1.265625 L -4.109375 -1.265625 C -4.847656 -1.265625 -5.328125 -1.238281 -5.546875 -1.1875 C -5.710938 -1.15625 -5.820312 -1.101562 -5.875 -1.03125 C -5.9375 -0.957031 -5.96875 -0.859375 -5.96875 -0.734375 C -5.96875 -0.597656 -5.929688 -0.429688 -5.859375 -0.234375 L -6.125 -0.125 L -6.953125 -2.15625 L -6.953125 -2.484375 Z M -5.515625 -2.484375 " />
</symbol>
<symbol overflow="visible" id="glyph4-12">
<path style="stroke:none;" d="M -0.96875 -4.296875 C -0.4375 -3.609375 -0.128906 -3.175781 -0.046875 -3 C 0.078125 -2.726562 0.140625 -2.441406 0.140625 -2.140625 C 0.140625 -1.679688 -0.015625 -1.296875 -0.328125 -0.984375 C -0.648438 -0.679688 -1.070312 -0.53125 -1.59375 -0.53125 C -1.925781 -0.53125 -2.210938 -0.609375 -2.453125 -0.765625 C -2.785156 -0.960938 -3.097656 -1.3125 -3.390625 -1.8125 C -3.691406 -2.3125 -4.054688 -3.140625 -4.484375 -4.296875 L -4.75 -4.296875 C -5.414062 -4.296875 -5.875 -4.1875 -6.125 -3.96875 C -6.375 -3.757812 -6.5 -3.453125 -6.5 -3.046875 C -6.5 -2.734375 -6.414062 -2.488281 -6.25 -2.3125 C -6.082031 -2.125 -5.894531 -2.03125 -5.6875 -2.03125 L -5.25 -2.046875 C -5.019531 -2.046875 -4.84375 -1.988281 -4.71875 -1.875 C -4.601562 -1.757812 -4.546875 -1.609375 -4.546875 -1.421875 C -4.546875 -1.234375 -4.609375 -1.082031 -4.734375 -0.96875 C -4.859375 -0.851562 -5.035156 -0.796875 -5.265625 -0.796875 C -5.679688 -0.796875 -6.066406 -1.007812 -6.421875 -1.4375 C -6.773438 -1.875 -6.953125 -2.484375 -6.953125 -3.265625 C -6.953125 -3.867188 -6.851562 -4.363281 -6.65625 -4.75 C -6.5 -5.03125 -6.257812 -5.242188 -5.9375 -5.390625 C -5.726562 -5.472656 -5.296875 -5.515625 -4.640625 -5.515625 L -2.34375 -5.515625 C -1.695312 -5.515625 -1.300781 -5.523438 -1.15625 -5.546875 C -1.007812 -5.578125 -0.910156 -5.617188 -0.859375 -5.671875 C -0.816406 -5.734375 -0.796875 -5.800781 -0.796875 -5.875 C -0.796875 -5.945312 -0.8125 -6.015625 -0.84375 -6.078125 C -0.90625 -6.179688 -1.085938 -6.378906 -1.390625 -6.671875 L -0.96875 -6.671875 C -0.238281 -6.117188 0.125 -5.59375 0.125 -5.09375 C 0.125 -4.851562 0.0390625 -4.660156 -0.125 -4.515625 C -0.289062 -4.378906 -0.570312 -4.304688 -0.96875 -4.296875 Z M -1.453125 -4.296875 L -4.03125 -4.296875 C -3.726562 -3.554688 -3.519531 -3.078125 -3.40625 -2.859375 C -3.1875 -2.472656 -2.957031 -2.195312 -2.71875 -2.03125 C -2.488281 -1.863281 -2.234375 -1.78125 -1.953125 -1.78125 C -1.597656 -1.78125 -1.300781 -1.882812 -1.0625 -2.09375 C -0.832031 -2.300781 -0.71875 -2.546875 -0.71875 -2.828125 C -0.71875 -3.203125 -0.960938 -3.691406 -1.453125 -4.296875 Z M -1.453125 -4.296875 " />
</symbol>
<symbol overflow="visible" id="glyph4-13">
<path style="stroke:none;" d="M -10.484375 -2.453125 L -5.546875 -2.453125 C -6.148438 -3.003906 -6.535156 -3.4375 -6.703125 -3.75 C -6.867188 -4.070312 -6.953125 -4.394531 -6.953125 -4.71875 C -6.953125 -5.101562 -6.847656 -5.429688 -6.640625 -5.703125 C -6.429688 -5.972656 -6.097656 -6.175781 -5.640625 -6.3125 C -5.328125 -6.40625 -4.753906 -6.453125 -3.921875 -6.453125 L -1.53125 -6.453125 C -1.101562 -6.453125 -0.8125 -6.488281 -0.65625 -6.5625 C -0.53125 -6.601562 -0.429688 -6.679688 -0.359375 -6.796875 C -0.296875 -6.921875 -0.265625 -7.140625 -0.265625 -7.453125 L 0 -7.453125 L 0 -4.140625 L -0.265625 -4.140625 L -0.265625 -4.296875 C -0.265625 -4.609375 -0.3125 -4.828125 -0.40625 -4.953125 C -0.5 -5.078125 -0.640625 -5.160156 -0.828125 -5.203125 C -0.910156 -5.222656 -1.144531 -5.234375 -1.53125 -5.234375 L -3.921875 -5.234375 C -4.660156 -5.234375 -5.144531 -5.191406 -5.375 -5.109375 C -5.601562 -5.035156 -5.773438 -4.914062 -5.890625 -4.75 C -6.003906 -4.582031 -6.0625 -4.378906 -6.0625 -4.140625 C -6.0625 -3.898438 -6 -3.648438 -5.875 -3.390625 C -5.75 -3.128906 -5.488281 -2.816406 -5.09375 -2.453125 L -1.53125 -2.453125 C -1.0625 -2.453125 -0.769531 -2.476562 -0.65625 -2.53125 C -0.550781 -2.582031 -0.457031 -2.675781 -0.375 -2.8125 C -0.300781 -2.957031 -0.265625 -3.203125 -0.265625 -3.546875 L 0 -3.546875 L 0 -0.203125 L -0.265625 -0.203125 C -0.265625 -0.503906 -0.3125 -0.738281 -0.40625 -0.90625 C -0.457031 -1.007812 -0.550781 -1.085938 -0.6875 -1.140625 C -0.820312 -1.203125 -1.101562 -1.234375 -1.53125 -1.234375 L -7.640625 -1.234375 C -8.410156 -1.234375 -8.882812 -1.210938 -9.0625 -1.171875 C -9.238281 -1.140625 -9.359375 -1.082031 -9.421875 -1 C -9.492188 -0.925781 -9.53125 -0.828125 -9.53125 -0.703125 C -9.53125 -0.597656 -9.488281 -0.429688 -9.40625 -0.203125 L -9.671875 -0.09375 L -10.484375 -2.125 Z M -10.484375 -2.453125 " />
</symbol>
</g>
<clipPath id="clip1">
  <path d="M 0 0.339844 L 225.800781 0.339844 L 225.800781 257.65625 L 0 257.65625 Z M 0 0.339844 " />
</clipPath>
<clipPath id="clip2">
  <path d="M 63.648438 207 L 214.878906 207 L 214.878906 209 L 63.648438 209 Z M 63.648438 207 " />
</clipPath>
<clipPath id="clip3">
  <path d="M 63.648438 183 L 214.878906 183 L 214.878906 185 L 63.648438 185 Z M 63.648438 183 " />
</clipPath>
<clipPath id="clip4">
  <path d="M 63.648438 158 L 214.878906 158 L 214.878906 160 L 63.648438 160 Z M 63.648438 158 " />
</clipPath>
<clipPath id="clip5">
  <path d="M 63.648438 134 L 214.878906 134 L 214.878906 136 L 63.648438 136 Z M 63.648438 134 " />
</clipPath>
<clipPath id="clip6">
  <path d="M 63.648438 109 L 214.878906 109 L 214.878906 111 L 63.648438 111 Z M 63.648438 109 " />
</clipPath>
<clipPath id="clip7">
  <path d="M 63.648438 85 L 214.878906 85 L 214.878906 87 L 63.648438 87 Z M 63.648438 85 " />
</clipPath>
<clipPath id="clip8">
  <path d="M 63.648438 207 L 214.878906 207 L 214.878906 209 L 63.648438 209 Z M 63.648438 207 " />
</clipPath>
<clipPath id="clip9">
  <path d="M 63.648438 83 L 194 83 L 194 210 L 63.648438 210 Z M 63.648438 83 " />
</clipPath>
<clipPath id="clip10">
  <path d="M 63.648438 96 L 214.878906 96 L 214.878906 210 L 63.648438 210 Z M 63.648438 96 " />
</clipPath>
</defs>
<rect x="0" y="28" width="226.4" height="230" fill="#fafaf7" /><g id="surface1">
<g clip-path="url(#clip1)" clip-rule="nonzero">
<path style="stroke:none;fill-rule:nonzero;fill:#fafaf7;fill-opacity:1;" d="M -614.371094 281.796875 L 225.800781 281.796875 L 225.800781 -192.148438 L -614.371094 -192.148438 Z M -614.371094 281.796875 " />
</g>
<g style="fill:rgb(18.823242%,19.215393%,18.03894%);fill-opacity:1;">
  <use xlink:href="#glyph0-1" x="10.717198" y="19.537071" />
</g>
<g style="fill:rgb(18.823242%,19.215393%,18.03894%);fill-opacity:1;">
  <use xlink:href="#glyph1-1" x="32.561706" y="19.809786" />
  <use xlink:href="#glyph1-2" x="46.242212" y="19.809786" />
  <use xlink:href="#glyph1-3" x="56.777338" y="19.809786" />
  <use xlink:href="#glyph1-4" x="64.148137" y="19.809786" />
  <use xlink:href="#glyph1-5" x="77.828644" y="19.809786" />
  <use xlink:href="#glyph1-6" x="86.241586" y="19.809786" />
</g>
<g style="fill:rgb(18.823242%,19.215393%,18.03894%);fill-opacity:1;">
  <use xlink:href="#glyph1-7" x="94.311688" y="19.809786" />
  <use xlink:href="#glyph1-3" x="99.048705" y="19.809786" />
  <use xlink:href="#glyph1-8" x="106.419504" y="19.809786" />
  <use xlink:href="#glyph1-9" x="112.729211" y="19.809786" />
  <use xlink:href="#glyph1-8" x="122.203246" y="19.809786" />
  <use xlink:href="#glyph1-5" x="128.512953" y="19.809786" />
  <use xlink:href="#glyph1-7" x="136.925896" y="19.809786" />
  <use xlink:href="#glyph1-10" x="141.662913" y="19.809786" />
  <use xlink:href="#glyph1-9" x="152.19804" y="19.809786" />
  <use xlink:href="#glyph1-8" x="161.672075" y="19.809786" />
  <use xlink:href="#glyph1-11" x="167.981782" y="19.809786" />
  <use xlink:href="#glyph1-12" x="176.394724" y="19.809786" />
  <use xlink:href="#glyph1-13" x="186.929851" y="19.809786" />
  <use xlink:href="#glyph1-2" x="192.197414" y="19.809786" />
  <use xlink:href="#glyph1-14" x="202.732541" y="19.809786" />
</g>
<path style="stroke:none;fill-rule:nonzero;fill:#fafaf7;fill-opacity:1;" d="M 63.648438 213.074219 L 214.878906 213.074219 L 214.878906 70.890625 L 63.648438 70.890625 Z M 63.648438 213.074219 " />
<path style="fill:none;stroke-width:0.7;stroke-linecap:butt;stroke-linejoin:round;stroke:rgb(18.823242%,19.215393%,18.03894%);stroke-opacity:1;stroke-miterlimit:10;" d="M 681.622671 68.90297 L 681.622671 65.902852 " transform="matrix(0.997357,0,0,-0.997357,-614.371806,281.795066)" />
<g style="fill:rgb(18.823242%,19.215393%,18.03894%);fill-opacity:1;">
  <use xlink:href="#glyph2-1" x="61.957744" y="229.233489" />
</g>
<path style="fill:none;stroke-width:0.7;stroke-linecap:butt;stroke-linejoin:round;stroke:rgb(18.823242%,19.215393%,18.03894%);stroke-opacity:1;stroke-miterlimit:10;" d="M 717.72591 68.90297 L 717.72591 65.902852 " transform="matrix(0.997357,0,0,-0.997357,-614.371806,281.795066)" />
<g style="fill:rgb(18.823242%,19.215393%,18.03894%);fill-opacity:1;">
  <use xlink:href="#glyph2-1" x="94.723765" y="229.233489" />
</g>
<g style="fill:rgb(18.823242%,19.215393%,18.03894%);fill-opacity:1;">
  <use xlink:href="#glyph2-1" x="101.184253" y="229.233489" />
</g>
<path style="fill:none;stroke-width:0.7;stroke-linecap:butt;stroke-linejoin:round;stroke:rgb(18.823242%,19.215393%,18.03894%);stroke-opacity:1;stroke-miterlimit:10;" d="M 753.82915 68.90297 L 753.82915 65.902852 " transform="matrix(0.997357,0,0,-0.997357,-614.371806,281.795066)" />
<g style="fill:rgb(18.823242%,19.215393%,18.03894%);fill-opacity:1;">
  <use xlink:href="#glyph2-2" x="130.481857" y="229.233489" />
  <use xlink:href="#glyph2-1" x="137.456607" y="229.233489" />
</g>
<path style="fill:none;stroke-width:0.7;stroke-linecap:butt;stroke-linejoin:round;stroke:rgb(18.823242%,19.215393%,18.03894%);stroke-opacity:1;stroke-miterlimit:10;" d="M 789.932389 68.90297 L 789.932389 65.902852 " transform="matrix(0.997357,0,0,-0.997357,-614.371806,281.795066)" />
<g style="fill:rgb(18.823242%,19.215393%,18.03894%);fill-opacity:1;">
  <use xlink:href="#glyph2-3" x="166.489288" y="229.233489" />
  <use xlink:href="#glyph2-1" x="173.464038" y="229.233489" />
</g>
<path style="fill:none;stroke-width:0.7;stroke-linecap:butt;stroke-linejoin:round;stroke:rgb(18.823242%,19.215393%,18.03894%);stroke-opacity:1;stroke-miterlimit:10;" d="M 826.031712 68.90297 L 826.031712 65.902852 " transform="matrix(0.997357,0,0,-0.997357,-614.371806,281.795066)" />
<g style="fill:rgb(18.823242%,19.215393%,18.03894%);fill-opacity:1;">
  <use xlink:href="#glyph2-4" x="202.496719" y="229.233489" />
  <use xlink:href="#glyph2-1" x="209.471469" y="229.233489" />
</g>
<g style="fill:rgb(18.823242%,19.215393%,18.03894%);fill-opacity:1;">
  <use xlink:href="#glyph3-1" x="85.367499" y="246.687233" />
  <use xlink:href="#glyph3-2" x="90.39978" y="246.687233" />
  <use xlink:href="#glyph3-3" x="97.955759" y="246.687233" />
  <use xlink:href="#glyph3-4" x="102.156883" y="246.687233" />
  <use xlink:href="#glyph3-5" x="108.866592" y="246.687233" />
  <use xlink:href="#glyph3-6" x="113.898874" y="246.687233" />
  <use xlink:href="#glyph3-4" x="121.454852" y="246.687233" />
  <use xlink:href="#glyph3-2" x="128.164561" y="246.687233" />
  <use xlink:href="#glyph3-3" x="135.72054" y="246.687233" />
  <use xlink:href="#glyph3-7" x="139.921664" y="246.687233" />
  <use xlink:href="#glyph3-8" x="144.122788" y="246.687233" />
  <use xlink:href="#glyph3-2" x="151.678767" y="246.687233" />
  <use xlink:href="#glyph3-9" x="159.234745" y="246.687233" />
  <use xlink:href="#glyph3-10" x="163.012735" y="246.687233" />
  <use xlink:href="#glyph3-11" x="167.213859" y="246.687233" />
  <use xlink:href="#glyph3-12" x="173.923568" y="246.687233" />
  <use xlink:href="#glyph3-4" x="181.479546" y="246.687233" />
  <use xlink:href="#glyph3-5" x="188.189255" y="246.687233" />
</g>
<g clip-path="url(#clip2)" clip-rule="nonzero">
<path style="fill:none;stroke-width:0.65;stroke-linecap:square;stroke-linejoin:round;stroke:rgb(90.586853%,90.979004%,93.331909%);stroke-opacity:1;stroke-miterlimit:10;" d="M 679.817117 73.818306 L 831.448373 73.818306 " transform="matrix(0.997357,0,0,-0.997357,-614.371806,281.795066)" />
</g>
<path style="fill:none;stroke-width:0.7;stroke-linecap:butt;stroke-linejoin:round;stroke:rgb(18.823242%,19.215393%,18.03894%);stroke-opacity:1;stroke-miterlimit:10;" d="M 679.817117 73.818306 L 676.817 73.818306 " transform="matrix(0.997357,0,0,-0.997357,-614.371806,281.795066)" />
<g style="fill:rgb(18.823242%,19.215393%,18.03894%);fill-opacity:1;">
  <use xlink:href="#glyph2-5" x="38.558364" y="213.009062" />
  <use xlink:href="#glyph2-6" x="45.533113" y="213.009062" />
</g>
<g clip-path="url(#clip3)" clip-rule="nonzero">
<path style="fill:none;stroke-width:0.65;stroke-linecap:square;stroke-linejoin:round;stroke:rgb(90.586853%,90.979004%,93.331909%);stroke-opacity:1;stroke-miterlimit:10;" d="M 679.817117 98.398901 L 831.448373 98.398901 " transform="matrix(0.997357,0,0,-0.997357,-614.371806,281.795066)" />
</g>
<path style="fill:none;stroke-width:0.7;stroke-linecap:butt;stroke-linejoin:round;stroke:rgb(18.823242%,19.215393%,18.03894%);stroke-opacity:1;stroke-miterlimit:10;" d="M 679.817117 98.398901 L 676.817 98.398901 " transform="matrix(0.997357,0,0,-0.997357,-614.371806,281.795066)" />
<g style="fill:rgb(18.823242%,19.215393%,18.03894%);fill-opacity:1;">
  <use xlink:href="#glyph2-2" x="31.576866" y="188.494719" />
  <use xlink:href="#glyph2-5" x="38.551615" y="188.494719" />
  <use xlink:href="#glyph2-6" x="45.526365" y="188.494719" />
</g>
<g clip-path="url(#clip4)" clip-rule="nonzero">
<path style="fill:none;stroke-width:0.65;stroke-linecap:square;stroke-linejoin:round;stroke:rgb(90.586853%,90.979004%,93.331909%);stroke-opacity:1;stroke-miterlimit:10;" d="M 679.817117 122.979497 L 831.448373 122.979497 " transform="matrix(0.997357,0,0,-0.997357,-614.371806,281.795066)" />
</g>
<path style="fill:none;stroke-width:0.7;stroke-linecap:butt;stroke-linejoin:round;stroke:rgb(18.823242%,19.215393%,18.03894%);stroke-opacity:1;stroke-miterlimit:10;" d="M 679.817117 122.979497 L 676.817 122.979497 " transform="matrix(0.997357,0,0,-0.997357,-614.371806,281.795066)" />
<g style="fill:rgb(18.823242%,19.215393%,18.03894%);fill-opacity:1;">
  <use xlink:href="#glyph2-4" x="31.576866" y="163.980376" />
  <use xlink:href="#glyph2-5" x="38.551615" y="163.980376" />
  <use xlink:href="#glyph2-6" x="45.526365" y="163.980376" />
</g>
<g clip-path="url(#clip5)" clip-rule="nonzero">
<path style="fill:none;stroke-width:0.65;stroke-linecap:square;stroke-linejoin:round;stroke:rgb(90.586853%,90.979004%,93.331909%);stroke-opacity:1;stroke-miterlimit:10;" d="M 679.817117 147.556176 L 831.448373 147.556176 " transform="matrix(0.997357,0,0,-0.997357,-614.371806,281.795066)" />
</g>
<path style="fill:none;stroke-width:0.7;stroke-linecap:butt;stroke-linejoin:round;stroke:rgb(18.823242%,19.215393%,18.03894%);stroke-opacity:1;stroke-miterlimit:10;" d="M 679.817117 147.556176 L 676.817 147.556176 " transform="matrix(0.997357,0,0,-0.997357,-614.371806,281.795066)" />
<g style="fill:rgb(18.823242%,19.215393%,18.03894%);fill-opacity:1;">
  <use xlink:href="#glyph2-7" x="31.576866" y="139.466033" />
  <use xlink:href="#glyph2-5" x="38.551615" y="139.466033" />
  <use xlink:href="#glyph2-6" x="45.526365" y="139.466033" />
</g>
<g clip-path="url(#clip6)" clip-rule="nonzero">
<path style="fill:none;stroke-width:0.65;stroke-linecap:square;stroke-linejoin:round;stroke:rgb(90.586853%,90.979004%,93.331909%);stroke-opacity:1;stroke-miterlimit:10;" d="M 679.817117 172.136772 L 831.448373 172.136772 " transform="matrix(0.997357,0,0,-0.997357,-614.371806,281.795066)" />
</g>
<path style="fill:none;stroke-width:0.7;stroke-linecap:butt;stroke-linejoin:round;stroke:rgb(18.823242%,19.215393%,18.03894%);stroke-opacity:1;stroke-miterlimit:10;" d="M 679.817117 172.136772 L 676.817 172.136772 " transform="matrix(0.997357,0,0,-0.997357,-614.371806,281.795066)" />
<g style="fill:rgb(18.823242%,19.215393%,18.03894%);fill-opacity:1;">
  <use xlink:href="#glyph2-8" x="31.576866" y="114.95169" />
  <use xlink:href="#glyph2-5" x="38.551615" y="114.95169" />
  <use xlink:href="#glyph2-6" x="45.526365" y="114.95169" />
</g>
<g clip-path="url(#clip7)" clip-rule="nonzero">
<path style="fill:none;stroke-width:0.65;stroke-linecap:square;stroke-linejoin:round;stroke:rgb(90.586853%,90.979004%,93.331909%);stroke-opacity:1;stroke-miterlimit:10;" d="M 679.817117 196.717368 L 831.448373 196.717368 " transform="matrix(0.997357,0,0,-0.997357,-614.371806,281.795066)" />
</g>
<path style="fill:none;stroke-width:0.7;stroke-linecap:butt;stroke-linejoin:round;stroke:rgb(18.823242%,19.215393%,18.03894%);stroke-opacity:1;stroke-miterlimit:10;" d="M 679.817117 196.717368 L 676.817 196.717368 " transform="matrix(0.997357,0,0,-0.997357,-614.371806,281.795066)" />
<g style="fill:rgb(18.823242%,19.215393%,18.03894%);fill-opacity:1;">
  <use xlink:href="#glyph2-1" x="24.595368" y="90.437347" />
  <use xlink:href="#glyph2-5" x="31.570117" y="90.437347" />
  <use xlink:href="#glyph2-5" x="38.544867" y="90.437347" />
  <use xlink:href="#glyph2-6" x="45.519616" y="90.437347" />
</g>
<g style="fill:rgb(18.823242%,19.215393%,18.03894%);fill-opacity:1;">
  <use xlink:href="#glyph4-1" x="17.380115" y="215.793794" />
  <use xlink:href="#glyph4-2" x="17.380115" y="207.391545" />
  <use xlink:href="#glyph4-3" x="17.380115" y="199.835567" />
  <use xlink:href="#glyph4-4" x="17.380115" y="192.279588" />
  <use xlink:href="#glyph4-5" x="17.380115" y="187.247306" />
  <use xlink:href="#glyph4-6" x="17.380115" y="180.537597" />
  <use xlink:href="#glyph4-7" x="17.380115" y="173.827888" />
  <use xlink:href="#glyph4-5" x="17.380115" y="168.795607" />
  <use xlink:href="#glyph4-2" x="17.380115" y="162.085898" />
  <use xlink:href="#glyph4-3" x="17.380115" y="154.529919" />
  <use xlink:href="#glyph4-8" x="17.380115" y="146.973941" />
  <use xlink:href="#glyph4-9" x="17.380115" y="139.417962" />
  <use xlink:href="#glyph4-10" x="17.380115" y="135.216838" />
  <use xlink:href="#glyph4-11" x="17.380115" y="131.438849" />
  <use xlink:href="#glyph4-12" x="17.380115" y="119.681746" />
  <use xlink:href="#glyph4-9" x="17.380115" y="112.972037" />
  <use xlink:href="#glyph4-5" x="17.380115" y="108.770913" />
  <use xlink:href="#glyph4-13" x="17.380115" y="102.061204" />
  <use xlink:href="#glyph4-10" x="17.380115" y="94.505225" />
  <use xlink:href="#glyph4-4" x="17.380115" y="90.727236" />
  <use xlink:href="#glyph4-12" x="17.380115" y="85.694954" />
  <use xlink:href="#glyph4-9" x="17.380115" y="78.985245" />
  <use xlink:href="#glyph4-6" x="17.380115" y="74.784121" />
</g>
<path style="stroke:none;fill-rule:nonzero;fill:rgb(8.627319%,55.293274%,79.214478%);fill-opacity:0.16;" d="M 65.449219 208.171875 L 144.664062 208.171875 L 148.265625 177.527344 L 151.867188 165.269531 L 159.066406 165.269531 L 162.667969 162.207031 L 166.269531 149.949219 L 169.871094 113.175781 L 173.472656 100.921875 L 177.070312 100.921875 L 180.671875 85.597656 L 184.273438 94.792969 L 191.472656 94.792969 L 191.472656 85.597656 L 173.472656 85.597656 L 169.871094 94.792969 L 166.269531 125.433594 L 162.667969 137.691406 L 159.066406 140.757812 L 151.867188 140.757812 L 148.265625 162.207031 L 144.664062 208.171875 Z M 65.449219 208.171875 " />
<path style="stroke:none;fill-rule:nonzero;fill:rgb(90.979004%,47.058105%,14.117432%);fill-opacity:0.16;" d="M 65.449219 208.171875 L 166.269531 208.171875 L 169.871094 186.71875 L 173.472656 186.71875 L 177.070312 180.589844 L 180.671875 162.207031 L 184.273438 174.464844 L 187.875 153.011719 L 191.472656 107.046875 L 213.078125 107.046875 L 213.078125 88.664062 L 191.472656 88.664062 L 187.875 116.242188 L 184.273438 134.628906 L 180.671875 128.5 L 177.070312 156.078125 L 173.472656 159.140625 L 169.871094 159.140625 L 166.269531 189.785156 L 162.667969 208.171875 Z M 65.449219 208.171875 " />
<g clip-path="url(#clip8)" clip-rule="nonzero">
<path style="fill:none;stroke-width:0.6;stroke-linecap:square;stroke-linejoin:round;stroke:rgb(50.587463%,56.469727%,64.704895%);stroke-opacity:1;stroke-miterlimit:10;" d="M 679.817117 73.818306 L 831.448373 73.818306 " transform="matrix(0.997357,0,0,-0.997357,-614.371806,281.795066)" />
</g>
<path style="fill:none;stroke-width:0.8;stroke-linecap:square;stroke-linejoin:miter;stroke:rgb(50.587463%,56.469727%,64.704895%);stroke-opacity:1;stroke-miterlimit:10;" d="M 679.817117 68.90297 L 679.817117 211.463375 " transform="matrix(0.997357,0,0,-0.997357,-614.371806,281.795066)" />
<path style="fill:none;stroke-width:0.8;stroke-linecap:square;stroke-linejoin:miter;stroke:rgb(50.587463%,56.469727%,64.704895%);stroke-opacity:1;stroke-miterlimit:10;" d="M 679.817117 68.90297 L 831.448373 68.90297 " transform="matrix(0.997357,0,0,-0.997357,-614.371806,281.795066)" />
<g clip-path="url(#clip9)" clip-rule="nonzero">
<path style="fill:none;stroke-width:2.4;stroke-linecap:square;stroke-linejoin:round;stroke:rgb(8.627319%,55.293274%,79.214478%);stroke-opacity:1;stroke-miterlimit:10;" d="M 681.622671 73.818306 L 761.047448 73.818306 L 764.658555 110.689199 L 768.269662 129.124646 L 775.48796 129.124646 L 779.099068 132.195262 L 782.710175 144.48556 L 786.321282 178.281921 L 789.932389 190.572219 L 793.53958 190.572219 L 797.150687 196.717368 L 800.761795 193.642835 L 807.980093 193.642835 " transform="matrix(0.997357,0,0,-0.997357,-614.371806,281.795066)" />
</g>
<g clip-path="url(#clip10)" clip-rule="nonzero">
<path style="fill:none;stroke-width:2.4;stroke-linecap:square;stroke-linejoin:round;stroke:rgb(90.979004%,47.058105%,14.117432%);stroke-opacity:1;stroke-miterlimit:10;" d="M 681.622671 73.818306 L 779.099068 73.818306 L 782.710175 83.037987 L 786.321282 110.689199 L 789.932389 110.689199 L 793.53958 113.759815 L 797.150687 135.269795 L 800.761795 126.050113 L 804.372902 147.556176 L 807.980093 184.42707 L 829.64282 184.42707 " transform="matrix(0.997357,0,0,-0.997357,-614.371806,281.795066)" />
</g>
<path style="fill:none;stroke-width:2.4;stroke-linecap:square;stroke-linejoin:round;stroke:rgb(8.627319%,55.293274%,79.214478%);stroke-opacity:1;stroke-miterlimit:10;" d="M 674.940947 237.316867 L 699.184715 237.316867 " transform="matrix(0.997357,0,0,-0.997357,-614.371806,281.795066)" />
<g style="fill:rgb(18.823242%,19.215393%,18.03894%);fill-opacity:1;">
  <use xlink:href="#glyph3-13" x="89.764218" y="50.395132" />
  <use xlink:href="#glyph3-14" x="100.675051" y="50.395132" />
  <use xlink:href="#glyph3-4" x="111.585884" y="50.395132" />
  <use xlink:href="#glyph3-2" x="118.295593" y="50.395132" />
</g>
<path style="fill:none;stroke-width:2.4;stroke-linecap:square;stroke-linejoin:round;stroke:rgb(90.979004%,47.058105%,14.117432%);stroke-opacity:1;stroke-miterlimit:10;" d="M 757.326676 237.316867 L 781.570444 237.316867 " transform="matrix(0.997357,0,0,-0.997357,-614.371806,281.795066)" />
<g style="fill:rgb(18.823242%,19.215393%,18.03894%);fill-opacity:1;">
  <use xlink:href="#glyph3-15" x="171.931954" y="50.395132" />
  <use xlink:href="#glyph3-4" x="182.842787" y="50.395132" />
  <use xlink:href="#glyph3-16" x="189.552496" y="50.395132" />
  <use xlink:href="#glyph3-16" x="201.309599" y="50.395132" />
  <use xlink:href="#glyph3-11" x="213.066702" y="50.395132" />
</g>
</g>
</svg>